<?xml version="1.0" encoding="UTF-8"?>
<svg version="1.1" xmlns="http://www.w3.org/2000/svg" width="350" height="100">
<path d="M0 0 C1.65 0 3.3 0 5 0 C5 18.15 5 36.3 5 55 C2.525 55.495 2.525 55.495 0 56 C-0.33 55.01 -0.66 54.02 -1 53 C-1.72316406 53.63228516 -1.72316406 53.63228516 -2.4609375 54.27734375 C-3.09257812 54.82519531 -3.72421875 55.37304688 -4.375 55.9375 C-5.00148437 56.48277344 -5.62796875 57.02804688 -6.2734375 57.58984375 C-9.77423784 60.44909471 -12.79938057 60.39225266 -17.1953125 60.34765625 C-23.23890339 59.59852033 -28.28595801 56.75689304 -32.5 52.4375 C-36.49080816 45.95243674 -36.73167016 40.60176785 -36 33 C-33.38011621 26.84896849 -26.95726136 21.97863068 -21 19 C-18.87764193 18.8770062 -16.75088537 18.82444318 -14.625 18.8125 C-13.48289063 18.79832031 -12.34078125 18.78414062 -11.1640625 18.76953125 C-8.16063184 18.98829966 -6.52074066 19.42919363 -4 21 C-0.8839681 16.79090979 -0.65066358 13.31220005 -0.875 8.25 C-0.95247631 5.83000472 -0.99409248 3.42208261 -1 1 C-0.67 0.67 -0.34 0.34 0 0 Z M-27 32 C-28.72529419 35.45058839 -28.36911258 39.2197781 -28 43 C-26.63060976 46.36123058 -25.01004034 48.98493949 -23 52 C-17.45764755 52.57234436 -17.45764755 52.57234436 -12.5 50.5 C-12.005 50.005 -11.51 49.51 -11 49 C-10.34 49.33 -9.68 49.66 -9 50 C-6.87038317 45.74076634 -6.3944298 41.68858136 -7 37 C-8.56435288 32.9773783 -9.38723663 31.40850891 -13 29 C-18.30645027 28.2348377 -22.72199651 28.52412217 -27 32 Z M-12 52 C-13.485 53.98 -13.485 53.98 -15 56 C-13.68 55.67 -12.36 55.34 -11 55 C-11.33 54.01 -11.66 53.02 -12 52 Z " fill="#F7EB20" transform="translate(196,3)"/>
<path d="M0 0 C1.32 0 2.64 0 4 0 C4.33 6.93 4.66 13.86 5 21 C6.65 19.68 8.3 18.36 10 17 C15.90767203 14.81549105 21.13866965 14.47158299 27 17 C31.81537672 19.91162313 34.42421478 23.66592488 36 29 C36.94558577 36.65064846 36.78384921 43.68905886 32 50 C28.20429268 53.79570732 24.28495425 55.94682628 18.828125 56.03515625 C13.07365597 55.63929513 9.14684153 54.14684153 5 50 C4.505 52.475 4.505 52.475 4 55 C2.68 55 1.36 55 0 55 C0 36.85 0 18.7 0 0 Z M6.625 25.375 C4.04948814 31.12037261 3.54349033 38.06147894 5.765625 44.0703125 C7.63736357 47.02647104 10.06388381 49.15906037 13 51 C17.93914967 51.81705755 22.49938583 51.75030708 27 49.5 C31.1856703 44.26791212 32.73032401 38.69463674 32 32 C30.35483524 26.89133048 28.73156506 23.67436286 24 21 C16.81553697 19.07440455 11.99768732 20.00231268 6.625 25.375 Z " fill="#A0A0A0" transform="translate(11,4)"/>
<path d="M0 0 C4.53522616 2.33240203 7.80274968 5.73008643 9.96484375 10.3515625 C10.99436556 14.64838617 11.37045989 18.13471409 9.96484375 22.3515625 C0.06484375 22.3515625 -9.83515625 22.3515625 -20.03515625 22.3515625 C-18.49797952 29.20691485 -18.49797952 29.20691485 -14.03515625 33.3515625 C-7.61236236 35.18845622 -2.97813816 34.11812304 2.96484375 31.3515625 C3.95484375 30.6915625 4.94484375 30.0315625 5.96484375 29.3515625 C6.62484375 30.3415625 7.28484375 31.3315625 7.96484375 32.3515625 C6.86565559 33.33631464 5.76028355 34.31416723 4.65234375 35.2890625 C4.03746094 35.83433594 3.42257812 36.37960938 2.7890625 36.94140625 C-1.72496368 40.43083548 -7.61758342 39.8971083 -13.03515625 39.3515625 C-17.89918255 37.71540009 -21.27917175 34.63864949 -24.03515625 30.3515625 C-26.82180005 24.22094614 -26.96388622 17.64736678 -25.03515625 11.2265625 C-23.03215292 6.42128047 -19.23982697 3.27618225 -15.03515625 0.3515625 C-10.19078729 -1.26322715 -4.91785279 -1.56691663 0 0 Z M-18.03515625 8.3515625 C-19.02515625 11.3215625 -20.01515625 14.2915625 -21.03515625 17.3515625 C-12.12515625 17.3515625 -3.21515625 17.3515625 5.96484375 17.3515625 C4.99182815 11.25477098 4.99182815 11.25477098 1.96484375 6.3515625 C-4.4153471 2.39335299 -12.74743352 3.06383977 -18.03515625 8.3515625 Z " fill="#939394" transform="translate(269.03515625,20.6484375)"/>
<path d="M0 0 C2.46074832 1.06358474 3.92235647 2.24199394 6 4 C6.66 4.33 7.32 4.66 8 5 C8.33 3.35 8.66 1.7 9 0 C10.32 0 11.64 0 13 0 C13 12.87 13 25.74 13 39 C11.68 39 10.36 39 9 39 C9 37.02 9 35.04 9 33 C8.34 33 7.68 33 7 33 C6.79375 33.598125 6.5875 34.19625 6.375 34.8125 C4.37890963 37.98809831 2.51400008 38.72218179 -1 40 C-7.51536226 40.9832274 -11.70351243 39.84254981 -17 36 C-21.40550101 31.59449899 -23.87133689 26.48380103 -24.1015625 20.25 C-23.72445761 13.64168572 -22.436371 9.22544286 -17.47265625 4.56640625 C-11.76793763 -0.3572262 -7.40081192 -0.79331693 0 0 Z M-16 9 C-18.90188863 14.22339954 -19.38764263 19.92082591 -18.3125 25.6875 C-16.88507134 29.29005804 -15.89204507 31.40457494 -13 34 C-8.49135413 35.94752159 -4.40353371 36.48092273 0.3125 35 C4.87186123 32.9564616 6.96817695 29.66554289 8.75 25.0625 C9.55692017 18.40540858 8.88502269 13.51577295 5 8 C1.8174563 4.92986403 -0.57320538 4.56800352 -4.9375 4.5625 C-9.84786322 4.69408099 -12.76148169 5.00582742 -16 9 Z " fill="#878788" transform="translate(104,20)"/>
<path d="M0 0 C3.7313035 3.11389357 6.45852548 6.37557644 8 11 C8.08315752 13.06498892 8.10735878 15.1325789 8.09765625 17.19921875 C8.09443359 18.40771484 8.09121094 19.61621094 8.08789062 20.86132812 C8.07532227 22.7552832 8.07532227 22.7552832 8.0625 24.6875 C8.05798828 25.96173828 8.05347656 27.23597656 8.04882812 28.54882812 C8.03702873 31.69926564 8.02056597 34.84960949 8 38 C6.68 38 5.36 38 4 38 C2.21955466 36.21955466 2.8488659 33.57984803 2.82421875 31.171875 C2.80037109 29.97949219 2.77652344 28.78710938 2.75195312 27.55859375 C2.70925164 25.03532405 2.67785698 22.51183571 2.65820312 19.98828125 C2.63048828 18.79074219 2.60277344 17.59320313 2.57421875 16.359375 C2.55963623 15.26077148 2.54505371 14.16216797 2.5300293 13.03027344 C1.88496647 9.34233251 0.59082784 7.65586955 -2 5 C-6.06691382 3.48672974 -9.8625158 3.55489749 -13.875 5.125 C-17.11741685 7.98595604 -18.80101179 10.64034085 -19.43237305 14.9543457 C-19.45855713 16.01741943 -19.48474121 17.08049316 -19.51171875 18.17578125 C-19.54716797 19.33271484 -19.58261719 20.48964844 -19.61914062 21.68164062 C-19.64169922 22.87982422 -19.66425781 24.07800781 -19.6875 25.3125 C-19.72166016 26.53001953 -19.75582031 27.74753906 -19.79101562 29.00195312 C-19.87334817 32.00121014 -19.94254921 35.00018014 -20 38 C-21.9375 38.5625 -21.9375 38.5625 -24 39 C-25 38 -25 38 -25.11352539 34.39819336 C-25.11336625 32.79540144 -25.10767063 31.1926044 -25.09765625 29.58984375 C-25.0962413 28.74780899 -25.09482635 27.90577423 -25.09336853 27.03822327 C-25.08775263 24.33794665 -25.07519748 21.63775172 -25.0625 18.9375 C-25.05748705 17.11132932 -25.05292379 15.28515734 -25.04882812 13.45898438 C-25.03777804 8.97262458 -25.02050279 4.48632616 -25 0 C-23.68 -0.33 -22.36 -0.66 -21 -1 C-20.34 0.32 -19.68 1.64 -19 3 C-18.2575 2.360625 -17.515 1.72125 -16.75 1.0625 C-11.37975345 -2.96518492 -6.104057 -2.39668496 0 0 Z " fill="#A6A6A6" transform="translate(150,21)"/>
<path d="M0 0 C2.87535576 1.0865123 4.60800204 2.05667431 6.30859375 4.64453125 C6.49421875 5.24265625 6.67984375 5.84078125 6.87109375 6.45703125 C5.88109375 7.11703125 4.89109375 7.77703125 3.87109375 8.45703125 C3.25234375 7.96203125 2.63359375 7.46703125 1.99609375 6.95703125 C-2.27736319 4.90577192 -6.45407714 4.64884045 -11.12890625 5.45703125 C-12.80120467 6.92051921 -12.80120467 6.92051921 -14.12890625 8.45703125 C-14.78890625 8.45703125 -15.44890625 8.45703125 -16.12890625 8.45703125 C-15.7922471 10.93951249 -15.7922471 10.93951249 -14.12890625 13.45703125 C-11.25432004 14.8696498 -8.21457737 15.62811649 -5.12890625 16.45703125 C5.18646826 19.43009301 5.18646826 19.43009301 7.87109375 23.45703125 C8.98367838 27.4623359 9.10377241 29.74530828 7.80859375 33.70703125 C5.31538392 37.24578069 4.03926866 38.16345973 -0.12890625 39.45703125 C-12.50985103 40.57832436 -12.50985103 40.57832436 -18.12890625 36.45703125 C-20.44140625 33.76953125 -20.44140625 33.76953125 -22.12890625 31.45703125 C-20.80890625 30.79703125 -19.48890625 30.13703125 -18.12890625 29.45703125 C-17.36578125 30.09640625 -16.60265625 30.73578125 -15.81640625 31.39453125 C-11.51063196 34.69896268 -7.41308531 35.01217847 -2.12890625 34.45703125 C0.9093395 33.53682393 0.9093395 33.53682393 2.87109375 31.45703125 C3.28855983 28.33067916 3.28855983 28.33067916 2.87109375 25.45703125 C-2.4331288 22.92547049 -7.60067619 21.57383302 -13.359375 20.3984375 C-16.57712285 19.30467554 -18.01689418 18.09461314 -20.12890625 15.45703125 C-21.16117421 11.67204874 -21.51910376 9.44400141 -20.06640625 5.76953125 C-14.47229588 -0.90731015 -8.2372776 -2.10088365 0 0 Z " fill="#959596" transform="translate(307.12890625,20.54296875)"/>
<path d="M0 0 C0.66 0.33 1.32 0.66 2 1 C2.33 1.99 2.66 2.98 3 4 C4.175625 3.01 4.175625 3.01 5.375 2 C9.65077566 -0.85390252 14.03807167 -0.67435603 19 0 C23.40546121 1.76218449 26.63447358 4.90083436 29 9 C33.06823131 19.42093096 31.86360323 29.23608478 30 40 C28.68 40 27.36 40 26 40 C25.98541748 39.24380371 25.97083496 38.48760742 25.95581055 37.70849609 C25.88108 34.26349723 25.78450072 30.81944079 25.6875 27.375 C25.66494141 26.18519531 25.64238281 24.99539062 25.61914062 23.76953125 C25.40240102 16.71564234 25.2316684 11.2316684 20 6 C15.87188959 4.94773656 13.37195734 4.89461209 9.25 6.0625 C5.2146738 8.46817523 4.6044636 9.58889454 3 14 C2.50236898 18.28753863 2.39769087 22.56190776 2.3125 26.875 C2.27833984 28.0403125 2.24417969 29.205625 2.20898438 30.40625 C2.12680646 33.27073718 2.05755579 36.13492985 2 39 C0.68 39 -0.64 39 -2 39 C-3.63438373 26.35238434 -2.65411358 13.68921007 -2 1 C-1.34 0.67 -0.68 0.34 0 0 Z " fill="#888889" transform="translate(207,20)"/>
<path d="M0 0 C0.721875 0.226875 1.44375 0.45375 2.1875 0.6875 C2.1875 2.6675 2.1875 4.6475 2.1875 6.6875 C1.5275 6.6875 0.8675 6.6875 0.1875 6.6875 C-0.1425 9.6575 -0.4725 12.6275 -0.8125 15.6875 C-3.125 16.375 -3.125 16.375 -5.8125 16.6875 C-7.625 15.6875 -7.625 15.6875 -8.8125 13.6875 C-8.9375 10.0625 -8.9375 10.0625 -8.8125 6.6875 C-9.3075 6.1925 -9.3075 6.1925 -9.8125 5.6875 C-9.8125 8.9875 -9.8125 12.2875 -9.8125 15.6875 C-10.8025 15.6875 -11.7925 15.6875 -12.8125 15.6875 C-13.1425 14.3675 -13.4725 13.0475 -13.8125 11.6875 C-14.1425 13.0075 -14.4725 14.3275 -14.8125 15.6875 C-16.24660368 15.93704005 -17.68510072 16.16142642 -19.125 16.375 C-20.32576172 16.56642578 -20.32576172 16.56642578 -21.55078125 16.76171875 C-23.8125 16.6875 -23.8125 16.6875 -25.625 15.34375 C-26.8125 13.6875 -26.8125 13.6875 -26.5 11.5 C-26.273125 10.901875 -26.04625 10.30375 -25.8125 9.6875 C-26.4725 9.3575 -27.1325 9.0275 -27.8125 8.6875 C-28.4725 10.9975 -29.1325 13.3075 -29.8125 15.6875 C-30.4725 15.6875 -31.1325 15.6875 -31.8125 15.6875 C-31.8125 15.0275 -31.8125 14.3675 -31.8125 13.6875 C-32.8025 14.3475 -33.7925 15.0075 -34.8125 15.6875 C-38 15.8125 -38 15.8125 -40.8125 15.6875 C-42.12427829 7.32491339 -42.12427829 7.32491339 -41.8125 3.6875 C-41.1525 3.0275 -40.4925 2.3675 -39.8125 1.6875 C-36.6875 2.0625 -36.6875 2.0625 -33.8125 2.6875 C-33.4825 4.9975 -33.1525 7.3075 -32.8125 9.6875 C-32.4825 8.3675 -32.1525 7.0475 -31.8125 5.6875 C-27.4711255 4.92137509 -24.09191187 4.5870798 -19.8125 5.6875 C-17.63275632 5.86889704 -17.63275632 5.86889704 -15.5 4.1875 C-12.51093256 2.51918329 -11.14336317 2.6875 -7.8125 2.6875 C-6.9875 2.171875 -6.1625 1.65625 -5.3125 1.125 C-2.8125 -0.3125 -2.8125 -0.3125 0 0 Z M-4.8125 1.6875 C-5.8025 3.1725 -5.8025 3.1725 -6.8125 4.6875 C-5.8225 4.6875 -4.8325 4.6875 -3.8125 4.6875 C-4.1425 3.6975 -4.4725 2.7075 -4.8125 1.6875 Z M-37.8125 4.6875 C-37.4825 5.6775 -37.1525 6.6675 -36.8125 7.6875 C-36.8125 6.6975 -36.8125 5.7075 -36.8125 4.6875 C-37.1425 4.6875 -37.4725 4.6875 -37.8125 4.6875 Z M-5.8125 8.6875 C-5.8125 10.0075 -5.8125 11.3275 -5.8125 12.6875 C-5.1525 12.6875 -4.4925 12.6875 -3.8125 12.6875 C-3.8125 11.3675 -3.8125 10.0475 -3.8125 8.6875 C-4.4725 8.6875 -5.1325 8.6875 -5.8125 8.6875 Z M-37.8125 9.6875 C-37.8125 11.0075 -37.8125 12.3275 -37.8125 13.6875 C-37.1525 13.3575 -36.4925 13.0275 -35.8125 12.6875 C-36.1425 11.6975 -36.4725 10.7075 -36.8125 9.6875 C-37.1425 9.6875 -37.4725 9.6875 -37.8125 9.6875 Z M-18.8125 9.6875 C-17.8125 11.6875 -17.8125 11.6875 -17.8125 11.6875 Z " fill="#F392C8" transform="translate(218.8125,72.3125)"/>
<path d="M0 0 C1.65 0 3.3 0 5 0 C5 18.15 5 36.3 5 55 C4.67 55 4.34 55 4 55 C4 37.18 4 19.36 4 1 C3.01 1 2.02 1 1 1 C1 11.23 1 21.46 1 32 C-0.65 30.35 -2.3 28.7 -4 27 C-6.66872375 24.59422998 -6.66872375 24.59422998 -10 24 C-10 24.66 -10 25.32 -10 26 C-10.68707031 25.97679688 -11.37414062 25.95359375 -12.08203125 25.9296875 C-12.98308594 25.91164063 -13.88414062 25.89359375 -14.8125 25.875 C-15.70582031 25.85179688 -16.59914062 25.82859375 -17.51953125 25.8046875 C-20.25402714 25.81714173 -20.25402714 25.81714173 -23 28 C-23 28.99 -23 29.98 -23 31 C-24.32 31.33 -25.64 31.66 -27 32 C-27.3100187 38.45298188 -27.53480559 43.34431106 -24 49 C-23.67 49.99 -23.34 50.98 -23 52 C-21.02 52 -19.04 52 -17 52 C-17 52.33 -17 52.66 -17 53 C-21.42023441 53.44202344 -23.47609866 53.34255088 -27.25 50.875 C-31.1348122 46.81360543 -33.14525593 43.52070533 -33.25 37.875 C-33.06436784 34.99770148 -32.80558886 32.71886242 -32 30 C-32 29.01 -32 28.02 -32 27 C-30.1015625 25.2109375 -30.1015625 25.2109375 -27.625 23.375 C-26.81289062 22.76398437 -26.00078125 22.15296875 -25.1640625 21.5234375 C-21.45807748 18.91453108 -19.15569729 18.83795336 -14.625 18.8125 C-13.48289063 18.79832031 -12.34078125 18.78414062 -11.1640625 18.76953125 C-8.16063184 18.98829966 -6.52074066 19.42919363 -4 21 C-0.8839681 16.79090979 -0.65066358 13.31220005 -0.875 8.25 C-0.95247631 5.83000472 -0.99409248 3.42208261 -1 1 C-0.67 0.67 -0.34 0.34 0 0 Z " fill="#35AEE3" transform="translate(196,3)"/>
<path d="M0 0 C0.99 0 1.98 0 3 0 C3 3.63 3 7.26 3 11 C6.63 11 10.26 11 14 11 C14.33 12.65 14.66 14.3 15 16 C11.37 16.33 7.74 16.66 4 17 C3.94611205 21.08350919 3.90637853 25.16630899 3.875 29.25 C3.85824219 30.40886719 3.84148437 31.56773438 3.82421875 32.76171875 C3.81455078 34.43427734 3.81455078 34.43427734 3.8046875 36.140625 C3.78897705 37.68024902 3.78897705 37.68024902 3.77294922 39.25097656 C3.85575467 42.33163105 3.85575467 42.33163105 6 46 C8.97 46 11.94 46 15 46 C15.33 47.32 15.66 48.64 16 50 C12.28722262 51.23759246 8.85812154 51.55653215 5 51 C1.55687286 48.8755173 0.28382453 47.85147359 -1 44 C-1.0833804 41.86205475 -1.10733747 39.72157991 -1.09765625 37.58203125 C-1.09443359 36.32841797 -1.09121094 35.07480469 -1.08789062 33.78320312 C-1.07951172 32.47287109 -1.07113281 31.16253906 -1.0625 29.8125 C-1.05748317 28.47721519 -1.05292059 27.14192859 -1.04882812 25.80664062 C-1.03702695 22.53771527 -1.02056297 19.26888009 -1 16 C-3.31 16 -5.62 16 -8 16 C-8.33 15.01 -8.66 14.02 -9 13 C-8.67 12.34 -8.34 11.68 -8 11 C-6.02 11 -4.04 11 -2 11 C-1.93941406 10.28972656 -1.87882812 9.57945313 -1.81640625 8.84765625 C-1.73261719 7.92855469 -1.64882813 7.00945313 -1.5625 6.0625 C-1.48128906 5.14597656 -1.40007812 4.22945312 -1.31640625 3.28515625 C-1 1 -1 1 0 0 Z " fill="#9F9FA0" transform="translate(328,9)"/>
<path d="M0 0 C2.5 0.875 2.5 0.875 3.8125 3.4375 C4.1528125 4.6440625 4.1528125 4.6440625 4.5 5.875 C4.5 5.215 4.5 4.555 4.5 3.875 C4.81478446 2.53716607 5.14587656 1.20296291 5.5 -0.125 C6.263125 0.04 7.02625 0.205 7.8125 0.375 C10.53596236 0.96645396 10.53596236 0.96645396 13.5 0.875 C13.83 0.545 14.16 0.215 14.5 -0.125 C16.49958364 -0.16580783 18.50045254 -0.16754356 20.5 -0.125 C20.83 0.535 21.16 1.195 21.5 1.875 C21.83 1.215 22.16 0.555 22.5 -0.125 C27.25 0.625 27.25 0.625 29.5 2.875 C29.125 5 29.125 5 28.5 6.875 C27.18 6.875 25.86 6.875 24.5 6.875 C25.82 7.205 27.14 7.535 28.5 7.875 C28.5 8.865 28.5 9.855 28.5 10.875 C26.6875 11.5 26.6875 11.5 24.5 11.875 C23.51 11.215 22.52 10.555 21.5 9.875 C20.51 11.525 19.52 13.175 18.5 14.875 C15.5625 14.5 15.5625 14.5 12.5 13.875 C12.17 13.215 11.84 12.555 11.5 11.875 C8.43090555 11.20780556 5.64213983 10.875 2.5 10.875 C1.84 10.545 1.18 10.215 0.5 9.875 C0.5 7.895 0.5 5.915 0.5 3.875 C-0.16 3.875 -0.82 3.875 -1.5 3.875 C-1.83 6.185 -2.16 8.495 -2.5 10.875 C-3.16 10.875 -3.82 10.875 -4.5 10.875 C-4.5 7.575 -4.5 4.275 -4.5 0.875 C-2.5 -0.125 -2.5 -0.125 0 0 Z M19.5 3.875 C18.84 5.195 18.18 6.515 17.5 7.875 C18.49 8.205 19.48 8.535 20.5 8.875 C20.5 7.225 20.5 5.575 20.5 3.875 C20.17 3.875 19.84 3.875 19.5 3.875 Z M11.5 7.875 C12.5 10.875 12.5 10.875 12.5 10.875 Z " fill="#F180BF" transform="translate(256.5,77.125)"/>
<path d="M0 0 C3.42232856 0.64622004 5.44524677 2.10095936 8.02734375 4.3828125 C11.04940286 8.81516587 11.93249161 13.10934237 11.02734375 18.3828125 C9.42868135 22.83399017 8.00969758 25.72790994 4.02734375 28.3828125 C3.36734375 28.3828125 2.70734375 28.3828125 2.02734375 28.3828125 C1.28484375 28.8571875 0.54234375 29.3315625 -0.22265625 29.8203125 C-3.88948707 31.9037391 -6.73222234 32.75768825 -10.95703125 32.05078125 C-15.84949708 30.62534478 -18.66963094 28.36817485 -21.1328125 23.90625 C-22.97515623 18.37064977 -23.27156795 11.40537509 -20.9453125 5.9921875 C-20.62433594 5.46109375 -20.30335938 4.93 -19.97265625 4.3828125 C-18.98265625 4.7128125 -17.99265625 5.0428125 -16.97265625 5.3828125 C-17.13765625 5.8778125 -17.30265625 6.3728125 -17.47265625 6.8828125 C-18.51926821 12.1158723 -18.77860961 16.46429294 -16.22265625 21.1953125 C-13.64676198 24.96490697 -13.64676198 24.96490697 -9.97265625 27.3828125 C-3.95644829 28.177406 -0.80117788 26.69650381 4.02734375 23.3828125 C6.51910476 19.64517099 6.42687367 16.70425858 6.02734375 12.3828125 C5.35409431 9.02135783 5.35409431 9.02135783 4.02734375 6.3828125 C1.01955854 5.38021743 -1.51086272 5.07966608 -4.66015625 4.8203125 C-5.65402344 4.73652344 -6.64789063 4.65273438 -7.671875 4.56640625 C-8.81076172 4.47552734 -8.81076172 4.47552734 -9.97265625 4.3828125 C-7.11198639 0.56858602 -4.77974935 -0.2670251 0 0 Z " fill="#E83090" transform="translate(181.97265625,27.6171875)"/>
<path d="M0 0 C1.8125 1.5 1.8125 1.5 3 3 C2.34 3 1.68 3 1 3 C1.33 3.99 1.66 4.98 2 6 C2.99 5.01 3.98 4.02 5 3 C6.65 3.99 8.3 4.98 10 6 C10.66 5.34 11.32 4.68 12 4 C14.125 4.375 14.125 4.375 16 5 C15.814375 5.639375 15.62875 6.27875 15.4375 6.9375 C15.293125 7.618125 15.14875 8.29875 15 9 C15.33 9.33 15.66 9.66 16 10 C16.33 7.03 16.66 4.06 17 1 C18.32 1 19.64 1 21 1 C20.83628906 1.56203125 20.67257813 2.1240625 20.50390625 2.703125 C19.97135003 5.13059056 19.90101319 7.26889681 19.9375 9.75 C19.94652344 10.54921875 19.95554687 11.3484375 19.96484375 12.171875 C19.97644531 12.77515625 19.98804687 13.3784375 20 14 C19.01 14 18.02 14 17 14 C14.66435067 14.31669821 12.3306218 14.64820803 10 15 C10 14.01 10 13.02 10 12 C10.66 11.67 11.32 11.34 12 11 C8.94729537 10.84188612 8.94729537 10.84188612 6 12 C6.99 12 7.98 12 9 12 C8.67 12.99 8.34 13.98 8 15 C7.01 15.33 6.02 15.66 5 16 C2.3125 14.5625 2.3125 14.5625 0 13 C-0.66 13.66 -1.32 14.32 -2 15 C-5.0625 15.1875 -5.0625 15.1875 -8 15 C-9 14 -9 14 -9.09765625 11.27734375 C-9.08605469 10.17519531 -9.07445313 9.07304688 -9.0625 7.9375 C-9.05347656 6.83277344 -9.04445313 5.72804688 -9.03515625 4.58984375 C-9.02355469 3.73519531 -9.01195313 2.88054687 -9 2 C-5.78173668 0.28495946 -3.69116133 -0.47322581 0 0 Z M-6 5 C-6 7.31 -6 9.62 -6 12 C-5.01 12 -4.02 12 -3 12 C-2.67 10.35 -2.34 8.7 -2 7 C-3.32 6.34 -4.64 5.68 -6 5 Z " fill="#F078BB" transform="translate(81,73)"/>
<path d="M0 0 C1.34977849 -0.63270867 2.68352881 -1.30062468 4 -2 C6.75 -1.625 6.75 -1.625 9 -1 C9 -0.34 9 0.32 9 1 C10.65 1 12.3 1 14 1 C15.99785435 5.1205746 16.17835515 8.45194365 16 13 C15.01 13.33 14.02 13.66 13 14 C13 11.69 13 9.38 13 7 C12.01 7.495 12.01 7.495 11 8 C10.34227572 11.02934491 10.34227572 11.02934491 10 14 C6 14 6 14 3 13 C3 10.69 3 8.38 3 6 C2.34 6 1.68 6 1 6 C1.020625 6.94875 1.04125 7.8975 1.0625 8.875 C1 12 1 12 0 14 C-0.99 14 -1.98 14 -3 14 C-3 12.02 -3 10.04 -3 8 C-5.50965614 8.70339566 -5.50965614 8.70339566 -8 10 C-8.88693303 12.04105639 -8.88693303 12.04105639 -9 14 C-9.66 14 -10.32 14 -11 14 C-11.19532961 12.2300132 -11.38098882 10.45895721 -11.5625 8.6875 C-11.66691406 7.70136719 -11.77132812 6.71523437 -11.87890625 5.69921875 C-12 3 -12 3 -11 0 C-6.42185265 -2.18502487 -4.52280654 -1.9043396 0 0 Z M2 1 C0.35 1.66 -1.3 2.32 -3 3 C0 4.33333333 0 4.33333333 3 3 C2.67 2.34 2.34 1.68 2 1 Z M3 3 C3.33 3.66 3.66 4.32 4 5 C4.66 5 5.32 5 6 5 C6.66 5.66 7.32 6.32 8 7 C8 6.01 8 5.02 8 4 C8.99 3.67 9.98 3.34 11 3 C7.94736336 2.01879536 6.05263664 2.01879536 3 3 Z M-8 3 C-8 3.99 -8 4.98 -8 6 C-7.34 6 -6.68 6 -6 6 C-6.33 5.01 -6.66 4.02 -7 3 C-7.33 3 -7.66 3 -8 3 Z " fill="#FCE4F1" transform="translate(143,74)"/>
<path d="M0 0 C1.32 0 2.64 0 4 0 C4.33 1.32 4.66 2.64 5 4 C5.61875 3.34 6.2375 2.68 6.875 2 C11.15680255 -0.74035363 15.02382431 -0.72534086 20 0 C20.99 0.66 21.98 1.32 23 2 C22.67 3.32 22.34 4.64 22 6 C20.87851563 5.93039063 20.87851563 5.93039063 19.734375 5.859375 C13.68266861 5.45280521 13.68266861 5.45280521 8.375 7.875 C6.0663901 11.44285167 5.76262829 13.8531697 5.46484375 18.1015625 C5.33432617 19.91914062 5.33432617 19.91914062 5.20117188 21.7734375 C5.0706543 23.67996094 5.0706543 23.67996094 4.9375 25.625 C4.84662109 26.90375 4.75574219 28.1825 4.66210938 29.5 C4.43762438 32.66641994 4.21709077 35.83306591 4 39 C2.68 39 1.36 39 0 39 C0 26.13 0 13.26 0 0 Z " fill="#B1B1B2" transform="translate(55,20)"/>
<path d="M0 0 C0.99 0.33 1.98 0.66 3 1 C2.67 2.32 2.34 3.64 2 5 C2.66 4.67 3.32 4.34 4 4 C5.99960012 3.960008 8.00047242 3.95653201 10 4 C9.814375 5.216875 9.62875 6.43375 9.4375 7.6875 C8.99461725 11.06896965 9.31198194 13.65819801 10 17 C9.34 17.66 8.68 18.32 8 19 C3.49953685 18.74997427 0.58211773 16.58245696 -3 14 C-4.98 14.99 -4.98 14.99 -7 16 C-7.99 15.34 -8.98 14.68 -10 14 C-10 13.34 -10 12.68 -10 12 C-8.68 12 -7.36 12 -6 12 C-6 11.34 -6 10.68 -6 10 C-7.32 9.34 -8.64 8.68 -10 8 C-9.67 5.69 -9.34 3.38 -9 1 C-7.88625 1.020625 -6.7725 1.04125 -5.625 1.0625 C-2.16784079 1.26380718 -2.16784079 1.26380718 0 0 Z M-6 4 C-6 4.99 -6 5.98 -6 7 C-4.02 7.99 -4.02 7.99 -2 9 C-2 7.68 -2 6.36 -2 5 C-3.32 4.67 -4.64 4.34 -6 4 Z M1 9 C1 10.98 1 12.96 1 15 C1.33 15 1.66 15 2 15 C2 13.02 2 11.04 2 9 C1.67 9 1.34 9 1 9 Z M-2 10 C-1 13 -1 13 -1 13 Z " fill="#F9CBE5" transform="translate(241,73)"/>
<path d="M0 0 C0.66 0.33 1.32 0.66 2 1 C2.33 1.99 2.66 2.98 3 4 C3.495 3.505 3.99 3.01 4.5 2.5 C7.94803758 0.43117745 11.06021471 0.40749323 15 1 C17.25 2.01953125 17.25 2.01953125 19 3 C18.41992188 2.99097656 17.83984375 2.98195313 17.2421875 2.97265625 C13.64768104 3.10908141 10.97664611 3.2182812 8.1015625 5.51953125 C4.1203789 10.1318781 2.90083018 13.64806487 2.68359375 19.76171875 C2.64169922 20.87998047 2.59980469 21.99824219 2.55664062 23.15039062 C2.51732422 24.31763672 2.47800781 25.48488281 2.4375 26.6875 C2.37272461 28.45577148 2.37272461 28.45577148 2.30664062 30.25976562 C2.20048824 33.17305883 2.09843758 36.08643757 2 39 C0.68 39 -0.64 39 -2 39 C-3.63438373 26.35238434 -2.65411358 13.68921007 -2 1 C-1.34 0.67 -0.68 0.34 0 0 Z " fill="#89898A" transform="translate(207,20)"/>
<path d="M0 0 C2.85934216 1.10761886 4.59568231 2.07342281 6.29296875 4.65625 C6.47859375 5.254375 6.66421875 5.8525 6.85546875 6.46875 C5.86546875 7.12875 4.87546875 7.78875 3.85546875 8.46875 C3.23671875 7.97375 2.61796875 7.47875 1.98046875 6.96875 C-2.29298819 4.91749067 -6.46970214 4.6605592 -11.14453125 5.46875 C-12.81682967 6.93223796 -12.81682967 6.93223796 -14.14453125 8.46875 C-14.80453125 8.46875 -15.46453125 8.46875 -16.14453125 8.46875 C-15.8078721 10.95123124 -15.8078721 10.95123124 -14.14453125 13.46875 C-11.26853036 14.88206374 -8.22771839 15.62658314 -5.14453125 16.46875 C-3.45375021 17.02130947 -1.76603532 17.58336887 -0.08203125 18.15625 C0.67207031 18.40761719 1.42617188 18.65898438 2.203125 18.91796875 C2.74839844 19.09972656 3.29367187 19.28148438 3.85546875 19.46875 C0.72534576 21.03381149 -1.73661328 19.80804984 -5.08203125 19.03125 C-10.06798145 17.85081855 -10.06798145 17.85081855 -15.14453125 17.46875 C-14.81453125 18.12875 -14.48453125 18.78875 -14.14453125 19.46875 C-16.80857701 18.45824988 -18.12160953 17.49641415 -19.95703125 15.28125 C-21.57168839 11.45706203 -21.34689314 9.42947151 -20.14453125 5.46875 C-14.60010252 -0.8170849 -7.96529976 -1.97318901 0 0 Z " fill="#9E9E9F" transform="translate(307.14453125,20.53125)"/>
<path d="M0 0 C1.65 0 3.3 0 5 0 C5 18.15 5 36.3 5 55 C4.67 55 4.34 55 4 55 C4 37.18 4 19.36 4 1 C3.01 1 2.02 1 1 1 C1 11.23 1 21.46 1 32 C-0.65 30.35 -2.3 28.7 -4 27 C-9.52936982 22.18409725 -15.95943575 21.59453654 -23 21 C-21 19 -21 19 -18.1015625 18.734375 C-16.95429688 18.73953125 -15.80703125 18.7446875 -14.625 18.75 C-12.91183594 18.74226563 -12.91183594 18.74226563 -11.1640625 18.734375 C-8.17993117 18.98489467 -6.51059322 19.44170076 -4 21 C-0.8839681 16.79090979 -0.65066358 13.31220005 -0.875 8.25 C-0.95247631 5.83000472 -0.99409248 3.42208261 -1 1 C-0.67 0.67 -0.34 0.34 0 0 Z " fill="#D4D4D5" transform="translate(196,3)"/>
<path d="M0 0 C3.05290269 -0.29354834 5.95624724 -0.43032367 9 0 C12.45897076 3.19954796 13.9228071 6.08312594 14.11352539 10.8190918 C14.10828857 11.93453369 14.10305176 13.04997559 14.09765625 14.19921875 C14.09443359 15.40771484 14.09121094 16.61621094 14.08789062 17.86132812 C14.07951172 19.12396484 14.07113281 20.38660156 14.0625 21.6875 C14.05798828 22.96173828 14.05347656 24.23597656 14.04882812 25.54882812 C14.03702873 28.69926564 14.02056597 31.84960949 14 35 C12.68 35 11.36 35 10 35 C8.21955466 33.21955466 8.8488659 30.57984803 8.82421875 28.171875 C8.80037109 26.97949219 8.77652344 25.78710938 8.75195312 24.55859375 C8.70925164 22.03532405 8.67785698 19.51183571 8.65820312 16.98828125 C8.63048828 15.79074219 8.60277344 14.59320313 8.57421875 13.359375 C8.55963623 12.26077148 8.54505371 11.16216797 8.5300293 10.03027344 C7.88447475 6.33952122 6.57528038 4.6729624 4 2 C1.88339573 0.68834743 1.88339573 0.68834743 0 0 Z " fill="#B8B8B8" transform="translate(144,24)"/>
<path d="M0 0 C0.99 0 1.98 0 3 0 C3 17.82 3 35.64 3 54 C2.01 54 1.02 54 0 54 C0 36.18 0 18.36 0 0 Z " fill="#747479" transform="translate(197,4)"/>
<path d="M0 0 C5.28180811 0.07614664 7.76195922 1.00050395 11.75 4.375 C12.41 4.705 13.07 5.035 13.75 5.375 C14.08 3.725 14.41 2.075 14.75 0.375 C16.07 0.375 17.39 0.375 18.75 0.375 C18.75 13.245 18.75 26.115 18.75 39.375 C18.42 39.375 18.09 39.375 17.75 39.375 C17.75 26.835 17.75 14.295 17.75 1.375 C17.09 1.375 16.43 1.375 15.75 1.375 C16.08 5.335 16.41 9.295 16.75 13.375 C16.09 13.375 15.43 13.375 14.75 13.375 C14.42 14.365 14.09 15.355 13.75 16.375 C13.49605469 15.82070313 13.24210937 15.26640625 12.98046875 14.6953125 C12.63628906 13.97085938 12.29210937 13.24640625 11.9375 12.5 C11.60105469 11.78070313 11.26460937 11.06140625 10.91796875 10.3203125 C9.75532903 8.06957194 9.75532903 8.06957194 6.75 6.375 C4.24103314 5.91898739 4.24103314 5.91898739 1.5625 5.75 C0.66144531 5.67523437 -0.23960938 5.60046875 -1.16796875 5.5234375 C-1.85503906 5.47445313 -2.54210937 5.42546875 -3.25 5.375 C-3.25 4.715 -3.25 4.055 -3.25 3.375 C-1.6 3.045 0.05 2.715 1.75 2.375 C-1.22 2.375 -4.19 2.375 -7.25 2.375 C-4.68599223 -0.18900777 -3.56217985 0.04866366 0 0 Z " fill="#B5B5B5" transform="translate(98.25,19.625)"/>
<path d="M0 0 C3.42232856 0.64622004 5.44524677 2.10095936 8.02734375 4.3828125 C11.04940286 8.81516587 11.93249161 13.10934237 11.02734375 18.3828125 C9.42868135 22.83399017 8.00969758 25.72790994 4.02734375 28.3828125 C4.35734375 27.2278125 4.68734375 26.0728125 5.02734375 24.8828125 C6.60338689 18.51109525 6.85756522 12.49013252 4.02734375 6.3828125 C1.01955854 5.38021743 -1.51086272 5.07966608 -4.66015625 4.8203125 C-5.65402344 4.73652344 -6.64789063 4.65273438 -7.671875 4.56640625 C-8.81076172 4.47552734 -8.81076172 4.47552734 -9.97265625 4.3828125 C-7.11198639 0.56858602 -4.77974935 -0.2670251 0 0 Z " fill="#333137" transform="translate(181.97265625,27.6171875)"/>
<path d="M0 0 C1.32 0 2.64 0 4 0 C4.33 7.92 4.66 15.84 5 24 C4.34 24 3.68 24 3 24 C3 16.41 3 8.82 3 1 C2.34 1 1.68 1 1 1 C1 18.49 1 35.98 1 54 C1.66 54 2.32 54 3 54 C2.95875 52.948125 2.9175 51.89625 2.875 50.8125 C2.99147875 47.25989827 3.47208068 45.15133359 5 42 C5.86625 43.11375 5.86625 43.11375 6.75 44.25 C8.72253526 46.66087643 10.76044282 48.84042701 13 51 C11.68 51 10.36 51 9 51 C8.67 51.66 8.34 52.32 8 53 C7.01 52.01 6.02 51.02 5 50 C4.505 52.475 4.505 52.475 4 55 C2.68 55 1.36 55 0 55 C0 36.85 0 18.7 0 0 Z " fill="#AEAEAF" transform="translate(11,4)"/>
<path d="M0 0 C0.99 0.99 1.98 1.98 3 3 C1.90081184 3.98475214 0.7954398 4.96260473 -0.3125 5.9375 C-1.23482422 6.75541016 -1.23482422 6.75541016 -2.17578125 7.58984375 C-6.68712189 11.07719701 -12.58519579 10.55053023 -18 10 C-20.94347058 9.01029648 -22.49543992 7.9600905 -25 6 C-25.9375 3.75 -25.9375 3.75 -26 2 C-23.625 1.875 -23.625 1.875 -21 2 C-20.34 2.66 -19.68 3.32 -19 4 C-12.61200872 5.76266149 -7.88377499 4.78705131 -2 2 C-1.34 1.34 -0.68 0.68 0 0 Z " fill="#8E8E8F" transform="translate(274,50)"/>
<path d="M0 0 C5.75 0.875 5.75 0.875 8 2 C9.2065625 1.7215625 9.2065625 1.7215625 10.4375 1.4375 C13 1 13 1 16 3 C16.1875 6.625 16.1875 6.625 16 10 C15.01 10.33 14.02 10.66 13 11 C13 8.69 13 6.38 13 4 C12.01 4.495 12.01 4.495 11 5 C10.34227572 8.02934491 10.34227572 8.02934491 10 11 C6 11 6 11 3 10 C3 7.69 3 5.38 3 3 C2.34 3 1.68 3 1 3 C1 4.98 1 6.96 1 9 C0.01 9.33 -0.98 9.66 -2 10 C-2 7.36 -2 4.72 -2 2 C-1.34 2 -0.68 2 0 2 C0 1.34 0 0.68 0 0 Z " fill="#F289C3" transform="translate(143,77)"/>
<path d="M0 0 C0.66 0 1.32 0 2 0 C2 9.24 2 18.48 2 28 C2.33 28 2.66 28 3 28 C3.33 33.94 3.66 39.88 4 46 C3.34 46 2.68 46 2 46 C2 48.31 2 50.62 2 53 C1.34 53 0.68 53 0 53 C0 35.51 0 18.02 0 0 Z " fill="#6F6F70" transform="translate(12,5)"/>
<path d="M0 0 C0 0.33 0 0.66 0 1 C-2.97 1 -5.94 1 -9 1 C-9 1.66 -9 2.32 -9 3 C-10.98689731 4.35278115 -12.98745218 5.68568305 -15 7 C-15.33 7.66 -15.66 8.32 -16 9 C-16.66 9 -17.32 9 -18 9 C-19.06723961 12.46222615 -19.10173486 15.64039266 -19.0625 19.25 C-19.04896484 20.86648437 -19.04896484 20.86648437 -19.03515625 22.515625 C-19.02355469 23.33546875 -19.01195313 24.1553125 -19 25 C-19.66 25.33 -20.32 25.66 -21 26 C-23.53797658 20.92404684 -22.25733882 13.4738496 -21.3125 8.0625 C-19.73672571 4.38569332 -18.16501458 2.44569308 -15 0 C-9.99653649 -1.59201112 -5.10462883 -0.73733528 0 0 Z " fill="#858586" transform="translate(104,22)"/>
<path d="M0 0 C4.63619362 0.6868435 7.55708293 3.41242472 10.6340332 6.79785156 C12.33602982 9.54173173 12.34647421 11.21154726 12.29296875 14.421875 C12.28330078 15.44667969 12.27363281 16.47148438 12.26367188 17.52734375 C12.23853516 18.59082031 12.21339844 19.65429688 12.1875 20.75 C12.17396484 21.82894531 12.16042969 22.90789063 12.14648438 24.01953125 C12.11116584 26.6801942 12.06184199 29.33984296 12 32 C12.99 32.33 13.98 32.66 15 33 C13.68 33 12.36 33 11 33 C9.89951543 27.89701229 10.05748831 23.27918151 10.4375 18.125 C10.48970703 17.34125 10.54191406 16.5575 10.59570312 15.75 C10.72428851 13.8329088 10.86128617 11.91638497 11 10 C10.34 10 9.68 10 9 10 C9.03480469 10.72445312 9.06960937 11.44890625 9.10546875 12.1953125 C9.26631949 17.93998168 9.23466184 22.01322966 6 27 C5.67 26.34 5.34 25.68 5 25 C5.309375 24.29875 5.61875 23.5975 5.9375 22.875 C7.56288582 18.4768972 7.9455672 14.32377599 6.171875 9.96484375 C4.22475407 6.36151392 4.22475407 6.36151392 1 4 C0.375 1.9375 0.375 1.9375 0 0 Z " fill="#E1DE7E" transform="translate(185,26)"/>
<path d="M0 0 C0.78375 0.04125 1.5675 0.0825 2.375 0.125 C2.705 0.785 3.035 1.445 3.375 2.125 C3.024375 2.929375 2.67375 3.73375 2.3125 4.5625 C2.003125 5.408125 1.69375 6.25375 1.375 7.125 C2.365 8.61 2.365 8.61 3.375 10.125 C3 12.3125 3 12.3125 2.375 14.125 C0.0625 14.75 0.0625 14.75 -2.625 15.125 C-3.615 14.465 -4.605 13.805 -5.625 13.125 C-5.51110125 11.33259337 -5.38352313 9.54105165 -5.25 7.75 C-5.18039063 6.75226563 -5.11078125 5.75453125 -5.0390625 4.7265625 C-4.46748065 1.13530293 -3.67326523 0.17491739 0 0 Z M-1.625 3.125 C-0.625 5.125 -0.625 5.125 -0.625 5.125 Z " fill="#F17ABB" transform="translate(106.625,76.875)"/>
<path d="M0 0 C0.33 0 0.66 0 1 0 C1.19573608 1.43640171 1.38127816 2.87419504 1.5625 4.3125 C1.71912109 5.51326172 1.71912109 5.51326172 1.87890625 6.73828125 C2 9 2 9 1 12 C-8.9 12 -18.8 12 -29 12 C-27.77273454 16.60608929 -27.77273454 16.60608929 -26 21 C-26.99 21.33 -27.98 21.66 -29 22 C-29.33 22.66 -29.66 23.32 -30 24 C-31.5625 22.1875 -31.5625 22.1875 -33 20 C-32.505 18.515 -32.505 18.515 -32 17 C-32 17.66 -32 18.32 -32 19 C-31.34 19 -30.68 19 -30 19 C-30.33 16.03 -30.66 13.06 -31 10 C-20.77 10 -10.54 10 0 10 C0 6.7 0 3.4 0 0 Z " fill="#B4B4B5" transform="translate(278,31)"/>
<path d="M0 0 C0.33 0 0.66 0 1 0 C1 4.95 1 9.9 1 15 C-0.010625 14.071875 -1.02125 13.14375 -2.0625 12.1875 C-8.1674942 7.0000901 -14.18417206 5.51396601 -22 5 C-20 3 -20 3 -17.1015625 2.734375 C-15.95429688 2.73953125 -14.80703125 2.7446875 -13.625 2.75 C-11.91183594 2.74226563 -11.91183594 2.74226563 -10.1640625 2.734375 C-7.17993117 2.98489467 -5.51059322 3.44170076 -3 5 C-2.525625 4.175 -2.05125 3.35 -1.5625 2.5 C-1.046875 1.675 -0.53125 0.85 0 0 Z " fill="#F9FCF8" transform="translate(195,19)"/>
<path d="M0 0 C3.125 0.375 3.125 0.375 6 1 C7.53617912 5.09647766 6.69045256 8.78823937 6 13 C5 14 5 14 1.9375 14.0625 C0.968125 14.041875 -0.00125 14.02125 -1 14 C-2.31177829 5.63741339 -2.31177829 5.63741339 -2 2 C-1.34 1.34 -0.68 0.68 0 0 Z M2 3 C2.33 3.99 2.66 4.98 3 6 C3 5.01 3 4.02 3 3 C2.67 3 2.34 3 2 3 Z M2 8 C2 9.32 2 10.64 2 12 C2.66 11.67 3.32 11.34 4 11 C3.67 10.01 3.34 9.02 3 8 C2.67 8 2.34 8 2 8 Z " fill="#F17EC0" transform="translate(179,74)"/>
<path d="M0 0 C1.4540625 0.0309375 1.4540625 0.0309375 2.9375 0.0625 C2.751875 1.279375 2.56625 2.49625 2.375 3.75 C1.93211725 7.13146965 2.24948194 9.72069801 2.9375 13.0625 C2.2775 13.7225 1.6175 14.3825 0.9375 15.0625 C-1.6875 14.6875 -1.6875 14.6875 -4.0625 14.0625 C-4.08935938 11.91673363 -4.10883088 9.77087355 -4.125 7.625 C-4.13660156 6.43003906 -4.14820313 5.23507813 -4.16015625 4.00390625 C-4.02995498 0.08224398 -4.02995498 0.08224398 0 0 Z " fill="#F49CCE" transform="translate(248.0625,76.9375)"/>
<path d="M0 0 C3.87188944 2.07841684 6.44471404 4.70288822 8.9296875 8.28125 C8.5996875 8.94125 8.2696875 9.60125 7.9296875 10.28125 C6.9396875 9.62125 5.9496875 8.96125 4.9296875 8.28125 C4.5996875 9.27125 4.2696875 10.26125 3.9296875 11.28125 C3.6821875 10.476875 3.4346875 9.6725 3.1796875 8.84375 C2.24026166 6.18225951 2.24026166 6.18225951 0.2421875 5.625 C-2.63858066 5.19677771 -5.40860212 5.18710097 -8.3203125 5.21875 C-9.39796875 5.22777344 -10.475625 5.23679687 -11.5859375 5.24609375 C-12.81570313 5.26349609 -12.81570313 5.26349609 -14.0703125 5.28125 C-13.7403125 4.62125 -13.4103125 3.96125 -13.0703125 3.28125 C-9.4403125 3.28125 -5.8103125 3.28125 -2.0703125 3.28125 C-2.0703125 2.62125 -2.0703125 1.96125 -2.0703125 1.28125 C-6.6903125 1.61125 -11.3103125 1.94125 -16.0703125 2.28125 C-13.63124694 -2.59688112 -4.48174419 -1.55592628 0 0 Z " fill="#ACACAC" transform="translate(269.0703125,20.71875)"/>
<path d="M0 0 C-0.29435033 2.84538652 -0.78351105 3.81733745 -3 5.6875 C-7.56198295 7.68336754 -12.24328713 8.79123203 -17.13671875 7.38671875 C-19.0625 6.5625 -19.0625 6.5625 -22 5 C-22 4.34 -22 3.68 -22 3 C-20.46279297 2.92652344 -20.46279297 2.92652344 -18.89453125 2.8515625 C-17.5338294 2.77648929 -16.17315356 2.70094345 -14.8125 2.625 C-14.13896484 2.5940625 -13.46542969 2.563125 -12.77148438 2.53125 C-8.3063272 2.26987495 -4.2368232 0 0 0 Z " fill="#919192" transform="translate(42,52)"/>
<path d="M0 0 C-5.94 0.495 -5.94 0.495 -12 1 C-12 1.66 -12 2.32 -12 3 C-13.6454378 4.68762851 -15.31288577 6.3540349 -17 8 C-18.41634833 10.83269666 -18.3463005 13.47466438 -18.5625 16.625 C-18.64628906 17.81351563 -18.73007812 19.00203125 -18.81640625 20.2265625 C-18.87699219 21.14179687 -18.93757813 22.05703125 -19 23 C-19.33 23 -19.66 23 -20 23 C-20.33 19.04 -20.66 15.08 -21 11 C-21.33 11 -21.66 11 -22 11 C-22 9.02 -22 7.04 -22 5 C-21.01 5 -20.02 5 -19 5 C-18.87625 4.38125 -18.7525 3.7625 -18.625 3.125 C-18 1 -18 1 -16 -1 C-10.40805372 -2.30045262 -4.90867101 -3.27244734 0 0 Z " fill="#9E9E9E" transform="translate(35,23)"/>
<path d="M0 0 C18.97402597 2.10822511 18.97402597 2.10822511 23 6 C23.3125 9.6875 23.3125 9.6875 23 13 C22.34 13 21.68 13 21 13 C20.63003906 12.21753906 20.26007813 11.43507813 19.87890625 10.62890625 C17.25036334 6.95113208 14.15566149 6.69460591 9.9375 5.9375 C2.38774416 4.54972606 2.38774416 4.54972606 0.50390625 1.87890625 C0.33761719 1.25886719 0.17132813 0.63882813 0 0 Z " fill="#89898A" transform="translate(291,37)"/>
<path d="M0 0 C3.375 -0.1875 3.375 -0.1875 7 0 C9.71232939 4.06849409 9.30699887 6.16476784 9 11 C7 13 7 13 3.9375 13.1875 C1 13 1 13 0 12 C-0.07244053 9.98035801 -0.08377188 7.95832876 -0.0625 5.9375 C-0.05347656 4.83277344 -0.04445313 3.72804688 -0.03515625 2.58984375 C-0.02355469 1.73519531 -0.01195313 0.88054687 0 0 Z M3 3 C3 5.31 3 7.62 3 10 C3.99 10 4.98 10 6 10 C6.33 8.35 6.66 6.7 7 5 C5.68 4.34 4.36 3.68 3 3 Z " fill="#F280BF" transform="translate(72,75)"/>
<path d="M0 0 C3.2513004 4.3350672 3.36557196 5.16624783 3.29296875 10.296875 C3.28330078 11.50214844 3.27363281 12.70742188 3.26367188 13.94921875 C3.23853516 15.20347656 3.21339844 16.45773438 3.1875 17.75 C3.17396484 19.01972656 3.16042969 20.28945313 3.14648438 21.59765625 C3.1111324 24.73219844 3.06178248 27.86588545 3 31 C2.01 30.67 1.02 30.34 0 30 C0 20.1 0 10.2 0 0 Z " fill="#787879" transform="translate(154,29)"/>
<path d="M0 0 C0.33 0 0.66 0 1 0 C1.04898437 1.25296875 1.09796875 2.5059375 1.1484375 3.796875 C1.22348583 5.44793821 1.29903277 7.09897881 1.375 8.75 C1.4059375 9.575 1.436875 10.4 1.46875 11.25 C1.50742187 12.04921875 1.54609375 12.8484375 1.5859375 13.671875 C1.6173584 14.4050293 1.6487793 15.13818359 1.68115234 15.89355469 C1.95275842 18.41937384 1.95275842 18.41937384 4 22 C6.97 22 9.94 22 13 22 C13.33 23.32 13.66 24.64 14 26 C10.28929959 27.23690014 6.85602246 27.56264919 3 27 C0 25.125 0 25.125 -2 23 C-2 22.34 -2 21.68 -2 21 C-1.01 21 -0.02 21 1 21 C0.67 20.34 0.34 19.68 0 19 C-0.08342159 17.55151418 -0.10732861 16.09929131 -0.09765625 14.6484375 C-0.09443359 13.79765625 -0.09121094 12.946875 -0.08789062 12.0703125 C-0.07951172 11.18085937 -0.07113281 10.29140625 -0.0625 9.375 C-0.05798828 8.4778125 -0.05347656 7.580625 -0.04882812 6.65625 C-0.03702591 4.43743352 -0.02056155 2.21874982 0 0 Z " fill="#9A9A9B" transform="translate(330,33)"/>
<path d="M0 0 C0.66 0 1.32 0 2 0 C2 1.98 2 3.96 2 6 C2.66 6 3.32 6 4 6 C3.76228882 7.29768311 3.76228882 7.29768311 3.51977539 8.62158203 C3.0310932 11.79790152 2.79938342 14.84565939 2.68359375 18.0546875 C2.64169922 19.16328125 2.59980469 20.271875 2.55664062 21.4140625 C2.49766602 23.12722656 2.49766602 23.12722656 2.4375 24.875 C2.39431641 26.0403125 2.35113281 27.205625 2.30664062 28.40625 C2.20098371 31.27072625 2.09888201 34.13528321 2 37 C1.34 37 0.68 37 0 37 C0 24.79 0 12.58 0 0 Z " fill="#707071" transform="translate(56,21)"/>
<path d="M0 0 C0.66 0.33 1.32 0.66 2 1 C1.01 1.8971875 1.01 1.8971875 0 2.8125 C-2.3373846 4.87501834 -2.3373846 4.87501834 -2 8 C-1.34 7.67 -0.68 7.34 0 7 C0.144375 7.763125 0.28875 8.52625 0.4375 9.3125 C2.87123219 13.49851937 6.51152674 13.77398184 11 15 C12.69078104 15.55255947 14.37849593 16.11461887 16.0625 16.6875 C16.81660156 16.93886719 17.57070313 17.19023438 18.34765625 17.44921875 C18.89292969 17.63097656 19.43820312 17.81273438 20 18 C16.86987701 19.56506149 14.40791797 18.33929984 11.0625 17.5625 C6.0765498 16.38206855 6.0765498 16.38206855 1 16 C1.33 16.66 1.66 17.32 2 18 C-0.66404576 16.98949988 -1.97707828 16.02766415 -3.8125 13.8125 C-5.39739585 10.05879929 -5.06435104 7.90262049 -4 4 C-1.9375 1.5625 -1.9375 1.5625 0 0 Z " fill="#B0B0B0" transform="translate(291,22)"/>
<path d="M0 0 C1.06723961 3.46222615 1.10173486 6.64039266 1.0625 10.25 C1.05347656 11.32765625 1.04445313 12.4053125 1.03515625 13.515625 C1.02355469 14.33546875 1.01195313 15.1553125 1 16 C1.33 15.67 1.66 15.34 2 15 C1.99092333 12.50845413 1.86715229 10.03123829 1.7421875 7.54296875 C2.0483112 4.52347587 3.00919478 3.23574723 5 1 C4.90460938 1.71285156 4.80921875 2.42570312 4.7109375 3.16015625 C3.82285578 10.83276924 4.16150212 16.14553951 8 23 C6.35 23.33 4.7 23.66 3 24 C-1.04365383 17.99973948 -2.91529221 12.09301208 -1.60546875 4.8046875 C-1.14809521 3.1792017 -0.58535596 1.58390437 0 0 Z " fill="#AFAFB0" transform="translate(82,30)"/>
<path d="M0 0 C0.66 0 1.32 0 2 0 C2 4.62 2 9.24 2 14 C-3 15 -3 15 -4.8125 14 C-6.57886204 11.02507445 -6.19143369 8.38199514 -6 5 C-4.02 4.67 -2.04 4.34 0 4 C0 2.68 0 1.36 0 0 Z M-3 7 C-3 8.32 -3 9.64 -3 11 C-2.34 11 -1.68 11 -1 11 C-1 9.68 -1 8.36 -1 7 C-1.66 7 -2.32 7 -3 7 Z " fill="#ED58A9" transform="translate(216,74)"/>
<path d="M0 0 C0.99 0.33 1.98 0.66 3 1 C2.835 1.495 2.67 1.99 2.5 2.5 C1.13807687 9.30961567 1.95930024 13.91860047 5 20 C4.34 20 3.68 20 3 20 C2.67 20.66 2.34 21.32 2 22 C2 21.34 2 20.68 2 20 C1.01 19.67 0.02 19.34 -1 19 C-2.4097034 16.1805932 -2.16984647 13.76732774 -2.1875 10.625 C-2.20167969 9.48289062 -2.21585938 8.34078125 -2.23046875 7.1640625 C-2.01170034 4.16063184 -1.57080637 2.52074066 0 0 Z " fill="#EB1D81" transform="translate(162,32)"/>
<path d="M0 0 C3.25655496 4.88483244 2.57782169 10.28897166 2 16 C0.96295504 19.03899262 -0.28012375 21.25894723 -2 24 C-2.33 23.34 -2.66 22.68 -3 22 C-4.32 22.33 -5.64 22.66 -7 23 C-6.71125 22.39414062 -6.4225 21.78828125 -6.125 21.1640625 C-3.3433724 14.88608354 -2.47627296 9.83754747 -3 3 C-1 5 -1 5 -0.8046875 7.1640625 C-0.82789063 7.97617187 -0.85109375 8.78828125 -0.875 9.625 C-0.89304687 10.44226562 -0.91109375 11.25953125 -0.9296875 12.1015625 C-0.96449219 13.04128906 -0.96449219 13.04128906 -1 14 C-0.34 14 0.32 14 1 14 C0.67 9.38 0.34 4.76 0 0 Z " fill="#A5A5A6" transform="translate(45,30)"/>
<path d="M0 0 C2.375 -0.125 2.375 -0.125 5 0 C5.66 0.66 6.32 1.32 7 2 C6.625 5.625 6.625 5.625 6 9 C5.01 9.33 4.02 9.66 3 10 C2.26676204 12.01508358 2.26676204 12.01508358 2 14 C1.34 14 0.68 14 0 14 C-0.19532961 12.2300132 -0.38098882 10.45895721 -0.5625 8.6875 C-0.66691406 7.70136719 -0.77132812 6.71523437 -0.87890625 5.69921875 C-1 3 -1 3 0 0 Z M3 3 C3 3.99 3 4.98 3 6 C3.66 6 4.32 6 5 6 C4.67 5.01 4.34 4.02 4 3 C3.67 3 3.34 3 3 3 Z " fill="#F180BE" transform="translate(132,74)"/>
<path d="M0 0 C0 3.51716303 -0.82445585 4.37121748 -3 7 C-2.34 7.66 -1.68 8.32 -1 9 C-4.71649861 10.85824931 -8.94508553 10.45382037 -13 10 C-15.92908678 8.92506271 -18.29813463 7.60110541 -21 6 C-19 5 -19 5 -16.4375 5.5 C-12.13130603 6.12635549 -8.28100487 5.61836737 -4 5 C-3.67 4.01 -3.34 3.02 -3 2 C-2.01 1.34 -1.02 0.68 0 0 Z " fill="#EEE86A" transform="translate(189,53)"/>
<path d="M0 0 C0.86882812 0.15984375 1.73765625 0.3196875 2.6328125 0.484375 C4.875 1.25 4.875 1.25 6.875 4.25 C5.55435547 4.32347656 5.55435547 4.32347656 4.20703125 4.3984375 C2.46486328 4.51058594 2.46486328 4.51058594 0.6875 4.625 C-0.46105469 4.69460937 -1.60960937 4.76421875 -2.79296875 4.8359375 C-5.92459117 5.22509574 -8.27785809 5.9309851 -11.125 7.25 C-10.25 2.5 -10.25 2.5 -9.125 0.25 C-5.89282416 -0.99648934 -3.35121573 -0.66023952 0 0 Z " fill="#A2A2A3" transform="translate(145.125,19.75)"/>
<path d="M0 0 C2.21538462 5.41538462 2.21538462 5.41538462 1.125 8.375 C0.75375 8.91125 0.3825 9.4475 0 10 C-0.66 9.67 -1.32 9.34 -2 9 C-2 7.02 -2 5.04 -2 3 C-2.66 3 -3.32 3 -4 3 C-4.33 5.31 -4.66 7.62 -5 10 C-5.66 10 -6.32 10 -7 10 C-7 6.7 -7 3.4 -7 0 C-4.3333581 -1.33332095 -2.83319697 -0.67102033 0 0 Z " fill="#F393C9" transform="translate(259,78)"/>
<path d="M0 0 C2 3 2 3 1.9375 6.375 C0.83768513 10.62761751 -0.61318867 12.2740299 -4 15 C-4.66 15 -5.32 15 -6 15 C-6 14.01 -6 13.02 -6 12 C-6.99 12.495 -6.99 12.495 -8 13 C-10.6723621 13.13415472 -13.32250488 13.04318541 -16 13 C-16 12.67 -16 12.34 -16 12 C-14.95199219 11.81824219 -14.95199219 11.81824219 -13.8828125 11.6328125 C-12.51769531 11.38144531 -12.51769531 11.38144531 -11.125 11.125 C-9.76761719 10.88136719 -9.76761719 10.88136719 -8.3828125 10.6328125 C-5.83494012 10.16955297 -5.83494012 10.16955297 -4 8 C-3.35232207 5.42938689 -3.35232207 5.42938689 -3 3 C-2.67 3.99 -2.34 4.98 -2 6 C-1.34 6 -0.68 6 0 6 C0 4.02 0 2.04 0 0 Z " fill="#9B9B9B" transform="translate(314,44)"/>
<path d="M0 0 C0 3 0 3 -0.48828125 4.84375 C-1.10458908 7.44071123 -1.1691767 9.83212683 -1.1875 12.5 C-1.20167969 13.4384375 -1.21585938 14.376875 -1.23046875 15.34375 C-0.99479903 18.05994337 -0.38484654 19.67915046 1 22 C1.66 21.67 2.32 21.34 3 21 C6 24.75 6 24.75 6 27 C7.98 27 9.96 27 12 27 C12 27.33 12 27.66 12 28 C7.57976559 28.44202344 5.52390134 28.34255088 1.75 25.875 C-2.1348122 21.81360543 -4.14525593 18.52070533 -4.25 12.875 C-4.06436784 9.99770148 -3.80558886 7.71886242 -3 5 C-3 4.01 -3 3.02 -3 2 C-2.01 1.34 -1.02 0.68 0 0 Z " fill="#92D7F1" transform="translate(167,28)"/>
<path d="M0 0 C1.875 1.125 1.875 1.125 2.875 2.125 C2.91592937 4.45797433 2.91741723 6.79205225 2.875 9.125 C1.885 9.455 0.895 9.785 -0.125 10.125 C-0.455 7.815 -0.785 5.505 -1.125 3.125 C-1.455 3.125 -1.785 3.125 -2.125 3.125 C-2.455 5.435 -2.785 7.745 -3.125 10.125 C-4.115 9.795 -5.105 9.465 -6.125 9.125 C-5.795 6.155 -5.465 3.185 -5.125 0.125 C-2.125 -0.875 -2.125 -0.875 0 0 Z " fill="#F289C4" transform="translate(116.125,77.875)"/>
<path d="M0 0 C1.0828125 0.3403125 1.0828125 0.3403125 2.1875 0.6875 C2.1875 2.6675 2.1875 4.6475 2.1875 6.6875 C1.5275 6.6875 0.8675 6.6875 0.1875 6.6875 C0.1875 8.3375 0.1875 9.9875 0.1875 11.6875 C-0.1425 11.6875 -0.4725 11.6875 -0.8125 11.6875 C-0.8125 8.3875 -0.8125 5.0875 -0.8125 1.6875 C-1.4725 1.6875 -2.1325 1.6875 -2.8125 1.6875 C-2.8125 3.0075 -2.8125 4.3275 -2.8125 5.6875 C-7.5625 6.8125 -7.5625 6.8125 -9.8125 5.6875 C-10.1425 6.3475 -10.4725 7.0075 -10.8125 7.6875 C-12.1325 6.6975 -13.4525 5.7075 -14.8125 4.6875 C-14.1525 4.0275 -13.4925 3.3675 -12.8125 2.6875 C-11.6678125 2.7184375 -11.6678125 2.7184375 -10.5 2.75 C-7.7012149 2.91353582 -7.7012149 2.91353582 -5.3125 1.125 C-2.8125 -0.3125 -2.8125 -0.3125 0 0 Z M-4.8125 1.6875 C-5.8025 3.1725 -5.8025 3.1725 -6.8125 4.6875 C-5.8225 4.6875 -4.8325 4.6875 -3.8125 4.6875 C-4.1425 3.6975 -4.4725 2.7075 -4.8125 1.6875 Z " fill="#FDF2F8" transform="translate(218.8125,72.3125)"/>
<path d="M0 0 C3.79303725 1.00193437 6.71536341 1.81024227 10 4 C12.32387947 4.39387788 14.65793749 4.73486085 17 5 C17 5.99 17 6.98 17 8 C10.42527587 8.53671217 6.34882112 8.01161584 1 4 C0.0625 1.75 0.0625 1.75 0 0 Z " fill="#888889" transform="translate(86,52)"/>
<path d="M0 0 C0 0.66 0 1.32 0 2 C-0.66 2 -1.32 2 -2 2 C-2 2.99 -2 3.98 -2 5 C-1.01 5.33 -0.02 5.66 1 6 C1 7.98 1 9.96 1 12 C-0.98 12.99 -0.98 12.99 -3 14 C-3.99 13.34 -4.98 12.68 -6 12 C-6 11.34 -6 10.68 -6 10 C-4.68 10 -3.36 10 -2 10 C-2 9.34 -2 8.68 -2 8 C-3.32 7.34 -4.64 6.68 -6 6 C-6 4.35 -6 2.7 -6 1 C-4 0 -4 0 0 0 Z " fill="#F285C2" transform="translate(237,75)"/>
<path d="M0 0 C1.07765625 0.00902344 2.1553125 0.01804687 3.265625 0.02734375 C4.08546875 0.03894531 4.9053125 0.05054687 5.75 0.0625 C5.75 0.7225 5.75 1.3825 5.75 2.0625 C4.64591797 2.06636719 4.64591797 2.06636719 3.51953125 2.0703125 C-2.13754895 2.13282942 -2.13754895 2.13282942 -7.09375 4.46484375 C-8.6125108 6.26921218 -8.6125108 6.26921218 -10.25 9.0625 C-10.58 8.0725 -10.91 7.0825 -11.25 6.0625 C-13.23 7.0525 -13.23 7.0525 -15.25 8.0625 C-13.96111971 5.1873055 -12.71733017 3.0553436 -10.25 1.0625 C-6.83074592 -0.09286439 -3.58570104 -0.03897501 0 0 Z " fill="#737375" transform="translate(261.25,21.9375)"/>
<path d="M0 0 C4.60700033 9.21400066 2.9104302 19.21101882 1 29 C-0.32 28.67 -1.64 28.34 -3 28 C-2.01 28 -1.02 28 0 28 C0 18.76 0 9.52 0 0 Z " fill="#D3D3D4" transform="translate(236,31)"/>
<path d="M0 0 C-0.66 5.61 -1.32 11.22 -2 17 C-2.99 16.67 -3.98 16.34 -5 16 C-5 11.05 -5 6.1 -5 1 C-3 0 -3 0 0 0 Z " fill="#ED52A6" transform="translate(230,73)"/>
<path d="M0 0 C0.66 0.66 1.32 1.32 2 2 C-1.3 2.66 -4.6 3.32 -8 4 C-8.33 5.32 -8.66 6.64 -9 8 C-10.32 8.33 -11.64 8.66 -13 9 C-13 13.62 -13 18.24 -13 23 C-15 21 -15 21 -15.265625 18.5390625 C-15.26046875 17.57742187 -15.2553125 16.61578125 -15.25 15.625 C-15.25515625 14.66851562 -15.2603125 13.71203125 -15.265625 12.7265625 C-14.99896864 9.98941342 -14.39742087 8.34012543 -13 6 C-12.34 6 -11.68 6 -11 6 C-10.731875 5.38125 -10.46375 4.7625 -10.1875 4.125 C-7.71814148 -0.29385208 -4.65141183 -0.39586484 0 0 Z " fill="#B4D0D8" transform="translate(182,26)"/>
<path d="M0 0 C0.99 0 1.98 0 3 0 C3.66 1.65 4.32 3.3 5 5 C4.34 5 3.68 5 3 5 C3 6.98 3 8.96 3 11 C3.66 11 4.32 11 5 11 C5 11.66 5 12.32 5 13 C3.35 12.67 1.7 12.34 0 12 C-0.19477739 10.37585622 -0.38059458 8.75063577 -0.5625 7.125 C-0.66691406 6.22007813 -0.77132812 5.31515625 -0.87890625 4.3828125 C-1 2 -1 2 0 0 Z " fill="#F289C4" transform="translate(160,75)"/>
<path d="M0 0 C1.60379341 -0.05416188 3.20811406 -0.09286638 4.8125 -0.125 C5.70582031 -0.14820312 6.59914063 -0.17140625 7.51953125 -0.1953125 C10 0 10 0 13 2 C12.67 3.32 12.34 4.64 12 6 C7.71 6 3.42 6 -1 6 C2 3 2 3 4.6875 2.8125 C5.450625 2.874375 6.21375 2.93625 7 3 C7 2.34 7 1.68 7 1 C4.69 1 2.38 1 0 1 C0 0.67 0 0.34 0 0 Z " fill="#ABABAB" transform="translate(65,20)"/>
<path d="M0 0 C0.99 0 1.98 0 3 0 C3 4.95 3 9.9 3 15 C2.01 15.33 1.02 15.66 0 16 C0 10.72 0 5.44 0 0 Z " fill="#F076B6" transform="translate(170,74)"/>
<path d="M0 0 C1.67542976 0.28604898 3.34385343 0.61781233 5 1 C5 3.97 5 6.94 5 10 C4.34 9.67 3.68 9.34 3 9 C3.33 8.01 3.66 7.02 4 6 C3.01 6.495 3.01 6.495 2 7 C2 7.99 2 8.98 2 10 C1.01 10 0.02 10 -1 10 C-0.814375 9.2575 -0.62875 8.515 -0.4375 7.75 C-0.00415005 5.02608603 -0.2593443 3.59229496 -1 1 C-0.67 0.67 -0.34 0.34 0 0 Z " fill="#EB46A1" transform="translate(262,77)"/>
<path d="M0 0 C0.99 0 1.98 0 3 0 C3 4.95 3 9.9 3 15 C2.01 15 1.02 15 0 15 C0 10.05 0 5.1 0 0 Z " fill="#EF6CB5" transform="translate(122,74)"/>
<path d="M0 0 C0.99 0.99 1.98 1.98 3 3 C1.90398831 4.00893131 0.79786082 5.00688225 -0.3125 6 C-0.92738281 6.556875 -1.54226563 7.11375 -2.17578125 7.6875 C-4 9 -4 9 -7 9 C-7 8.34 -7 7.68 -7 7 C-7.99 6.34 -8.98 5.68 -10 5 C-9.16855469 4.70996094 -9.16855469 4.70996094 -8.3203125 4.4140625 C-7.59585937 4.15367188 -6.87140625 3.89328125 -6.125 3.625 C-5.04605469 3.24214844 -5.04605469 3.24214844 -3.9453125 2.8515625 C-1.81842006 2.06122217 -1.81842006 2.06122217 0 0 Z " fill="#949495" transform="translate(274,50)"/>
<path d="M0 0 C0.33 0 0.66 0 1 0 C1.33 7.26 1.66 14.52 2 22 C1.01 22 0.02 22 -1 22 C-1.02887814 18.52085059 -1.04675687 15.04173169 -1.0625 11.5625 C-1.07087891 10.56927734 -1.07925781 9.57605469 -1.08789062 8.55273438 C-1.09111328 7.60849609 -1.09433594 6.66425781 -1.09765625 5.69140625 C-1.10289307 4.81685791 -1.10812988 3.94230957 -1.11352539 3.04125977 C-1 1 -1 1 0 0 Z " fill="#777779" transform="translate(329,32)"/>
<path d="M0 0 C0.33 0 0.66 0 1 0 C1.06058594 0.61488281 1.12117187 1.22976562 1.18359375 1.86328125 C1.26738281 2.67152344 1.35117188 3.47976562 1.4375 4.3125 C1.51871094 5.11300781 1.59992188 5.91351563 1.68359375 6.73828125 C1.95265693 9.16087179 1.95265693 9.16087179 3 12 C2.67 12.66 2.34 13.32 2 14 C1.84693099 15.81171098 1.75053339 17.6283794 1.68359375 19.4453125 C1.64169922 20.52167969 1.59980469 21.59804688 1.55664062 22.70703125 C1.51732422 23.83496094 1.47800781 24.96289062 1.4375 26.125 C1.39431641 27.26066406 1.35113281 28.39632812 1.30664062 29.56640625 C1.2003396 32.37747768 1.09830595 35.18863945 1 38 C0.67 38 0.34 38 0 38 C0 25.46 0 12.92 0 0 Z " fill="#525253" transform="translate(127,21)"/>
<path d="M0 0 C0.66 0 1.32 0 2 0 C2.05787784 3.62493334 2.0935542 7.24974857 2.125 10.875 C2.15013672 12.42380859 2.15013672 12.42380859 2.17578125 14.00390625 C2.18222656 14.99003906 2.18867187 15.97617187 2.1953125 16.9921875 C2.20578613 17.90339355 2.21625977 18.81459961 2.22705078 19.75341797 C2 22 2 22 0 24 C-0.33 20.04 -0.66 16.08 -1 12 C-0.34 12 0.32 12 1 12 C0.835 11.505 0.67 11.01 0.5 10.5 C-0.20688818 6.96555911 -0.06005155 3.60309299 0 0 Z " fill="#69696A" transform="translate(114,21)"/>
<path d="M0 0 C1.4540625 0.0309375 1.4540625 0.0309375 2.9375 0.0625 C2.6075 2.3725 2.2775 4.6825 1.9375 7.0625 C0.9475 6.7325 -0.0425 6.4025 -1.0625 6.0625 C-0.7325 5.0725 -0.4025 4.0825 -0.0625 3.0625 C-1.0525 3.0625 -2.0425 3.0625 -3.0625 3.0625 C-2.85625 4.155625 -2.65 5.24875 -2.4375 6.375 C-2.0625 10.0625 -2.0625 10.0625 -4.0625 13.0625 C-4.08936553 11.08340602 -4.10883375 9.10421029 -4.125 7.125 C-4.13660156 6.02285156 -4.14820313 4.92070313 -4.16015625 3.78515625 C-4.02168594 -0.07539595 -3.9087853 0.07977113 0 0 Z " fill="#F06CB6" transform="translate(248.0625,76.9375)"/>
<path d="M0 0 C1.32 0.66 2.64 1.32 4 2 C4 3.32 4 4.64 4 6 C1 6 1 6 -0.796875 5.0078125 C-3.71546181 3.67271428 -6.05685592 3.80558382 -9.25 3.875 C-10.86648438 3.90207031 -10.86648438 3.90207031 -12.515625 3.9296875 C-13.33546875 3.95289063 -14.1553125 3.97609375 -15 4 C-14.67 3.34 -14.34 2.68 -14 2 C-9.38 2 -4.76 2 0 2 C0 1.34 0 0.68 0 0 Z " fill="#B0B0B1" transform="translate(309,22)"/>
<path d="M0 0 C0.99 0.33 1.98 0.66 3 1 C2.85957123 2.64630328 2.71250671 4.29204179 2.5625 5.9375 C2.48128906 6.85402344 2.40007812 7.77054687 2.31640625 8.71484375 C2 11 2 11 1 12 C-0.99958364 12.04080783 -3.00045254 12.04254356 -5 12 C-5 11.01 -5 10.02 -5 9 C-3.68 9 -2.36 9 -1 9 C-0.67 6.03 -0.34 3.06 0 0 Z " fill="#F178BA" transform="translate(183,76)"/>
<path d="M0 0 C1.32 0 2.64 0 4 0 C3.83628906 0.56203125 3.67257813 1.1240625 3.50390625 1.703125 C2.97135003 4.13059056 2.90101319 6.26889681 2.9375 8.75 C2.94652344 9.54921875 2.95554687 10.3484375 2.96484375 11.171875 C2.97644531 11.77515625 2.98804687 12.3784375 3 13 C2.01 13 1.02 13 0 13 C-1.06671952 9.79984144 -0.94845472 8.11455706 -0.5625 4.8125 C-0.46066406 3.91144531 -0.35882813 3.01039062 -0.25390625 2.08203125 C-0.17011719 1.39496094 -0.08632812 0.70789063 0 0 Z " fill="#F6A5D2" transform="translate(98,74)"/>
<path d="M0 0 C0.66 0.33 1.32 0.66 2 1 C1.83757812 1.71027344 1.67515625 2.42054687 1.5078125 3.15234375 C0.99638531 6.02027009 0.86690519 8.65241682 0.875 11.5625 C0.87242187 12.49191406 0.86984375 13.42132813 0.8671875 14.37890625 C0.98690036 16.74147476 1.33006767 18.74030763 2 21 C-0.52894687 18.58100734 -1.91834831 17.17920234 -2.16796875 13.57421875 C-2.17441406 12.62160156 -2.18085938 11.66898438 -2.1875 10.6875 C-2.20167969 9.74261719 -2.21585938 8.79773437 -2.23046875 7.82421875 C-1.98824335 4.85593118 -1.24026607 2.69132835 0 0 Z " fill="#1599DB" transform="translate(167,30)"/>
<path d="M0 0 C0.66 0.33 1.32 0.66 2 1 C1.83628906 1.69480469 1.67257813 2.38960937 1.50390625 3.10546875 C0.95904004 6.2352816 0.90261517 9.13798083 0.9375 12.3125 C0.95103516 13.91544922 0.95103516 13.91544922 0.96484375 15.55078125 C0.97644531 16.35902344 0.98804687 17.16726562 1 18 C0.34 18.33 -0.32 18.66 -1 19 C-2.34116414 16.31767173 -2.16904021 14.18167741 -2.1875 11.1875 C-2.20167969 10.14980469 -2.21585937 9.11210938 -2.23046875 8.04296875 C-1.99714427 4.96229467 -1.30118886 2.78238408 0 0 Z " fill="#69696A" transform="translate(84,29)"/>
<path d="M0 0 C0.66 0 1.32 0 2 0 C2 5.61 2 11.22 2 17 C1.01 17.33 0.02 17.66 -1 18 C-0.505 9.09 -0.505 9.09 0 0 Z " fill="#FDF512" transform="translate(194,36)"/>
<path d="M0 0 C0.99 0 1.98 0 3 0 C4.60725635 3.21451269 4.05748185 6.43612536 4 10 C3.67 10 3.34 10 3 10 C3 7.69 3 5.38 3 3 C2.34 3 1.68 3 1 3 C1 4.98 1 6.96 1 9 C0.01 9.33 -0.98 9.66 -2 10 C-2 7.36 -2 4.72 -2 2 C-1.34 2 -0.68 2 0 2 C0 1.34 0 0.68 0 0 Z " fill="#F394C9" transform="translate(143,77)"/>
<path d="M0 0 C-0.33 0.99 -0.66 1.98 -1 3 C-4.63 3 -8.26 3 -12 3 C-12.33 2.01 -12.66 1.02 -13 0 C-11.58456585 -0.19658808 -10.16755969 -0.38187546 -8.75 -0.5625 C-7.96109375 -0.66691406 -7.1721875 -0.77132812 -6.359375 -0.87890625 C-3.99467126 -1.00027349 -2.2488963 -0.69633257 0 0 Z " fill="#818182" transform="translate(268,57)"/>
<path d="M0 0 C1 1 1 1 1.0625 4.5625 C1.041875 5.696875 1.02125 6.83125 1 8 C0.34 8 -0.32 8 -1 8 C-1.4125 7.21625 -1.825 6.4325 -2.25 5.625 C-4.44888887 2.3266667 -6.23110958 1.92128432 -10 1 C-10 0.67 -10 0.34 -10 0 C-6.36077717 -0.74438649 -3.53875533 -1.31065012 0 0 Z " fill="#89898A" transform="translate(313,42)"/>
<path d="M0 0 C2.25390625 1.015625 2.25390625 1.015625 4 2 C3.38511719 2.03738281 2.77023438 2.07476563 2.13671875 2.11328125 C0.92435547 2.21189453 0.92435547 2.21189453 -0.3125 2.3125 C-1.11300781 2.37050781 -1.91351563 2.42851562 -2.73828125 2.48828125 C-5.38781795 3.08774465 -6.18545289 4.05885658 -8 6 C-10.1875 5.6875 -10.1875 5.6875 -12 5 C-10.06026733 -0.81919802 -5.39305858 -0.70389248 0 0 Z " fill="#818182" transform="translate(222,21)"/>
<path d="M0 0 C3.36720387 1.39332574 4.9859524 2.9789286 7 6 C6.67 6.66 6.34 7.32 6 8 C5.01 7.34 4.02 6.68 3 6 C2.67 6.99 2.34 7.98 2 9 C1.34 7.35 0.68 5.7 0 4 C-0.66 4 -1.32 4 -2 4 C-2 3.34 -2 2.68 -2 2 C-1.34 2 -0.68 2 0 2 C0 1.34 0 0.68 0 0 Z " fill="#A3A3A4" transform="translate(271,23)"/>
<path d="M0 0 C2.98657372 0.2059706 5.72254337 0.54637415 8.625 1.25 C8.625 1.91 8.625 2.57 8.625 3.25 C3.675 3.25 -1.275 3.25 -6.375 3.25 C-3.375 0.25 -3.375 0.25 0 0 Z " fill="#727274" transform="translate(300.375,20.75)"/>
<path d="M0 0 C1.8125 1.5 1.8125 1.5 3 3 C2.34 3 1.68 3 1 3 C1.33 6.3 1.66 9.6 2 13 C-0.95183101 10.04816899 -1.08663988 7.04488053 -2 3 C-4.97 2.505 -4.97 2.505 -8 2 C-4.76746204 -0.15502531 -3.74849077 -0.46856135 0 0 Z " fill="#FCE2F0" transform="translate(81,73)"/>
<path d="M0 0 C0.5775 0.7425 1.155 1.485 1.75 2.25 C3.72253526 4.66087643 5.76044282 6.84042701 8 9 C6.68 9 5.36 9 4 9 C3.67 9.66 3.34 10.32 3 11 C0.10551918 8.60890715 -0.62813667 6.71863329 -1 3 C-0.67 2.01 -0.34 1.02 0 0 Z " fill="#9C9C9D" transform="translate(16,46)"/>
<path d="M0 0 C0.99 0.33 1.98 0.66 3 1 C2.34 4.63 1.68 8.26 1 12 C0.67 12 0.34 12 0 12 C-0.33 13.65 -0.66 15.3 -1 17 C-1.33 17 -1.66 17 -2 17 C-2.05418326 14.91695462 -2.09287551 12.83350232 -2.125 10.75 C-2.14820313 9.58984375 -2.17140625 8.4296875 -2.1953125 7.234375 C-2.0103949 4.17213954 -1.60823023 2.55797249 0 0 Z " fill="#F564AB" transform="translate(162,32)"/>
<path d="M0 0 C0.99 0 1.98 0 3 0 C3 2.64 3 5.28 3 8 C1.02 8.66 -0.96 9.32 -3 10 C-3.66 9.34 -4.32 8.68 -5 8 C-4.34 6.68 -3.68 5.36 -3 4 C-2.34 4 -1.68 4 -1 4 C-0.67 5.32 -0.34 6.64 0 8 C0 5.36 0 2.72 0 0 Z " fill="#F7B2D9" transform="translate(267,79)"/>
<path d="M0 0 C1.95766281 -0.08082094 3.91626728 -0.13910778 5.875 -0.1875 C7.51082031 -0.23970703 7.51082031 -0.23970703 9.1796875 -0.29296875 C10.11039063 -0.19628906 11.04109375 -0.09960938 12 0 C12.66 0.99 13.32 1.98 14 3 C8.84828377 3.09038099 4.08086796 2.84681133 -1 2 C-0.67 1.34 -0.34 0.68 0 0 Z " fill="#787879" transform="translate(138,21)"/>
<path d="M0 0 C2 1 2 1 2.62109375 2.734375 C3.04706889 5.28144284 3.09646629 7.66856169 3.0625 10.25 C3.05347656 11.14203125 3.04445313 12.0340625 3.03515625 12.953125 C3.02355469 13.62859375 3.01195312 14.3040625 3 15 C2.34 15 1.68 15 1 15 C0.93941406 14.40832031 0.87882812 13.81664062 0.81640625 13.20703125 C0.45123472 9.76318281 0.08191112 6.39317337 -0.625 3 C-0.74875 2.34 -0.8725 1.68 -1 1 C-0.67 0.67 -0.34 0.34 0 0 Z " fill="#717172" transform="translate(43,29)"/>
<path d="M0 0 C0.33 0 0.66 0 1 0 C1 1.65 1 3.3 1 5 C1.99 4.67 2.98 4.34 4 4 C3.39816251 6.02045442 2.72693904 8.02111039 2 10 C1.01 10.495 1.01 10.495 0 11 C0 10.34 0 9.68 0 9 C-1.32 9.33 -2.64 9.66 -4 10 C-2.68 6.7 -1.36 3.4 0 0 Z " fill="#9E9E9F" transform="translate(42,43)"/>
<path d="M0 0 C1.93753594 5.81260782 1.17814715 12.10926427 0 18 C-2.70454841 13.94317738 -2.42076588 10.75789116 -2 6 C-1 2.4375 -1 2.4375 0 0 Z " fill="#AEAEAF" transform="translate(245,30)"/>
<path d="M0 0 C2.64 0 5.28 0 8 0 C7.69381595 3.67420866 7.24228216 4.78135513 4.4375 7.3125 C3.633125 7.869375 2.82875 8.42625 2 9 C2.3403125 8.1646875 2.3403125 8.1646875 2.6875 7.3125 C3.12449065 4.07876916 1.81198627 2.60926022 0 0 Z " fill="#F8C2E1" transform="translate(190,77)"/>
<path d="M0 0 C1.62463842 -0.05395478 3.24978541 -0.09277195 4.875 -0.125 C5.77992188 -0.14820313 6.68484375 -0.17140625 7.6171875 -0.1953125 C10 0 10 0 12 2 C9.75487738 3.12256131 8.48543351 3.13413762 6 3.125 C4.948125 3.12886719 4.948125 3.12886719 3.875 3.1328125 C2 3 2 3 0 2 C0 1.34 0 0.68 0 0 Z " fill="#7C7C7D" transform="translate(331,57)"/>
<path d="M0 0 C0.66 0 1.32 0 2 0 C2 1.65 2 3.3 2 5 C1.34 5 0.68 5 0 5 C-0.33 6.98 -0.66 8.96 -1 11 C-1.66 11 -2.32 11 -3 11 C-2.88590407 9.54077307 -2.75834456 8.08259402 -2.625 6.625 C-2.55539063 5.81289063 -2.48578125 5.00078125 -2.4140625 4.1640625 C-2 2 -2 2 0 0 Z " fill="#727273" transform="translate(248,28)"/>
<path d="M0 0 C0.99 0 1.98 0 3 0 C3 1.98 3 3.96 3 6 C1.02 6.99 1.02 6.99 -1 8 C-1.99 7.34 -2.98 6.68 -4 6 C-4 5.34 -4 4.68 -4 4 C-2.68 4 -1.36 4 0 4 C0 2.68 0 1.36 0 0 Z " fill="#EF6BB4" transform="translate(235,81)"/>
<path d="M0 0 C0 0.99 0 1.98 0 3 C-4.29 3 -8.58 3 -13 3 C-13.33 2.34 -13.66 1.68 -14 1 C-12.04175306 0.83232136 -10.08339945 0.66588795 -8.125 0.5 C-6.48917969 0.36078125 -6.48917969 0.36078125 -4.8203125 0.21875 C-3.21670436 0.09437042 -1.60842449 0 0 0 Z " fill="#6D6D6E" transform="translate(308,56)"/>
<path d="M0 0 C-0.99580078 0.09087891 -0.99580078 0.09087891 -2.01171875 0.18359375 C-8.54908081 0.79863507 -8.54908081 0.79863507 -15 2 C-14.67 1.01 -14.34 0.02 -14 -1 C-9.32060895 -2.97974237 -4.14800985 -2.7653399 0 0 Z " fill="#6C6C6E" transform="translate(35,23)"/>
<path d="M0 0 C1.65 0.33 3.3 0.66 5 1 C5 3.31 5 5.62 5 8 C2.625 8.625 2.625 8.625 0 9 C-0.66 8.34 -1.32 7.68 -2 7 C-1.34 7 -0.68 7 0 7 C0 6.34 0 5.68 0 5 C0.66 5 1.32 5 2 5 C2 3.68 2 2.36 2 1 C1.34 0.67 0.68 0.34 0 0 Z " fill="#F5A3D1" transform="translate(213,80)"/>
<path d="M0 0 C0.99 0 1.98 0 3 0 C4.4783226 2.95664519 4.06032783 5.74229737 4 9 C3.34 9 2.68 9 2 9 C1.67 8.01 1.34 7.02 1 6 C0.67 6.99 0.34 7.98 0 9 C-0.66 9 -1.32 9 -2 9 C-1.6875 7.0625 -1.6875 7.0625 -1 5 C-0.01 4.67 0.98 4.34 2 4 C2 3.01 2 2.02 2 1 C1.34 0.67 0.68 0.34 0 0 Z " fill="#EC49A3" transform="translate(195,78)"/>
<path d="M0 0 C1.8253125 0.2784375 1.8253125 0.2784375 3.6875 0.5625 C7.06896965 1.00538275 9.65819801 0.68801806 13 0 C13.66 0.66 14.32 1.32 15 2 C9.57842646 3.99159844 6.57193369 4.22877348 1 2 C0.67 1.34 0.34 0.68 0 0 Z " fill="#F8D399" transform="translate(168,58)"/>
<path d="M0 0 C2.75 -0.25 2.75 -0.25 6 0 C8.375 2 8.375 2 10 4 C8.35 3.67 6.7 3.34 5 3 C5.33 3.99 5.66 4.98 6 6 C3.37812506 4.95125002 2.20628639 4.35068687 0.75 1.875 C0.5025 1.25625 0.255 0.6375 0 0 Z " fill="#EE46A0" transform="translate(162,52)"/>
<path d="M0 0 C0.33 0 0.66 0 1 0 C1.30485617 1.72349377 1.56754187 3.45447848 1.8125 5.1875 C1.96332031 6.15042969 2.11414063 7.11335938 2.26953125 8.10546875 C2 11 2 11 -3 16 C-2.01 10.72 -1.02 5.44 0 0 Z " fill="#5C6066" transform="translate(189,40)"/>
<path d="M0 0 C0.33 0 0.66 0 1 0 C1.144375 1.093125 1.28875 2.18625 1.4375 3.3125 C1.88288104 6.93122987 1.88288104 6.93122987 3 10 C2.0625 12.6875 2.0625 12.6875 1 15 C0.34 14.67 -0.32 14.34 -1 14 C-0.67 9.38 -0.34 4.76 0 0 Z " fill="#8B8B8C" transform="translate(113,36)"/>
<path d="M0 0 C1.65 0 3.3 0 5 0 C5.33 1.65 5.66 3.3 6 5 C5.01 5.33 4.02 5.66 3 6 C2.01 5.34 1.02 4.68 0 4 C0 2.68 0 1.36 0 0 Z " fill="#F391C7" transform="translate(104,85)"/>
<path d="M0 0 C1.98 0 3.96 0 6 0 C5.01 0.66 4.02 1.32 3 2 C3.99 2 4.98 2 6 2 C5.67 2.99 5.34 3.98 5 5 C4.01 5.33 3.02 5.66 2 6 C1.01 5.34 0.02 4.68 -1 4 C-0.67 2.68 -0.34 1.36 0 0 Z " fill="#F38FC7" transform="translate(84,83)"/>
<path d="M0 0 C0.33 0 0.66 0 1 0 C1.33 4.95 1.66 9.9 2 15 C1.01 15 0.02 15 -1 15 C-0.67 10.05 -0.34 5.1 0 0 Z " fill="#828283" transform="translate(14,36)"/>
<path d="M0 0 C0.66 0.33 1.32 0.66 2 1 C1.67 1.33 1.34 1.66 1 2 C1.99 2.66 2.98 3.32 4 4 C2.35 5.32 0.7 6.64 -1 8 C-1 7.01 -1 6.02 -1 5 C-2.98 5.99 -2.98 5.99 -5 7 C-3.70700306 4.11562221 -2.34058637 2.12780579 0 0 Z " fill="#A4A4A4" transform="translate(251,23)"/>
<path d="M0 0 C-0.33 1.65 -0.66 3.3 -1 5 C-1.33 4.01 -1.66 3.02 -2 2 C-2.66 2 -3.32 2 -4 2 C-4 6.62 -4 11.24 -4 16 C-4.33 16 -4.66 16 -5 16 C-5 11.05 -5 6.1 -5 1 C-3 0 -3 0 0 0 Z " fill="#F9CAE5" transform="translate(230,73)"/>
<path d="M0 0 C0.93423645 3.01031744 1.04449911 3.86650268 0 7 C-0.66 7 -1.32 7 -2 7 C-2 6.01 -2 5.02 -2 4 C-2.99 4.495 -2.99 4.495 -4 5 C-6.6723621 5.13415472 -9.32250488 5.04318541 -12 5 C-12 4.67 -12 4.34 -12 4 C-10.95199219 3.81824219 -10.95199219 3.81824219 -9.8828125 3.6328125 C-8.51769531 3.38144531 -8.51769531 3.38144531 -7.125 3.125 C-5.76761719 2.88136719 -5.76761719 2.88136719 -4.3828125 2.6328125 C-1.83494012 2.16955297 -1.83494012 2.16955297 0 0 Z " fill="#A5A5A6" transform="translate(310,52)"/>
<path d="M0 0 C0.66 0 1.32 0 2 0 C2 2.97 2 5.94 2 9 C1.01 8.67 0.02 8.34 -1 8 C-1.125 2.25 -1.125 2.25 0 0 Z " fill="#F079BB" transform="translate(111,79)"/>
<path d="M0 0 C1.9375 0.625 1.9375 0.625 4 2 C4.75 5.125 4.75 5.125 5 8 C4.67 7.01 4.34 6.02 4 5 C2.68 5.33 1.36 5.66 0 6 C-0.38218767 4.34385343 -0.71395102 2.67542976 -1 1 C-0.67 0.67 -0.34 0.34 0 0 Z " fill="#888888" transform="translate(231,25)"/>
<path d="M0 0 C0.99 0 1.98 0 3 0 C3 2.64 3 5.28 3 8 C2.01 7.67 1.02 7.34 0 7 C0 4.69 0 2.38 0 0 Z " fill="#F074B7" transform="translate(210,79)"/>
<path d="M0 0 C1.65 0.33 3.3 0.66 5 1 C4.67 2.32 4.34 3.64 4 5 C2.35 4.67 0.7 4.34 -1 4 C-0.67 2.68 -0.34 1.36 0 0 Z " fill="#F6ABD5" transform="translate(262,77)"/>
<path d="M0 0 C1.98 0.66 3.96 1.32 6 2 C6 3.32 6 4.64 6 6 C3.5625 5.25 3.5625 5.25 1 4 C0.1875 1.875 0.1875 1.875 0 0 Z " fill="#7F7F80" transform="translate(105,23)"/>
<path d="M0 0 C1.134375 0.020625 2.26875 0.04125 3.4375 0.0625 C3.4375 0.7225 3.4375 1.3825 3.4375 2.0625 C1.766875 2.495625 1.766875 2.495625 0.0625 2.9375 C-3.56541092 3.75491329 -3.56541092 3.75491329 -5.5625 6.0625 C-4.48849278 0.07874549 -4.48849278 0.07874549 0 0 Z " fill="#737373" transform="translate(68.5625,20.9375)"/>
<path d="M0 0 C0.639375 0.144375 1.27875 0.28875 1.9375 0.4375 C5.93844788 1.17236798 9.95504896 1.58581111 14 2 C14 2.33 14 2.66 14 3 C9.71 3 5.42 3 1 3 C0.67 2.01 0.34 1.02 0 0 Z " fill="#737374" transform="translate(20,55)"/>
<path d="M0 0 C0.91007812 0.10183594 1.82015625 0.20367187 2.7578125 0.30859375 C3.45648438 0.39238281 4.15515625 0.47617187 4.875 0.5625 C4.875 0.8925 4.875 1.2225 4.875 1.5625 C1.905 1.5625 -1.065 1.5625 -4.125 1.5625 C-4.125 2.2225 -4.125 2.8825 -4.125 3.5625 C-5.115 3.2325 -6.105 2.9025 -7.125 2.5625 C-7.125 1.9025 -7.125 1.2425 -7.125 0.5625 C-4.50184968 -0.74907516 -2.89466564 -0.33399988 0 0 Z " fill="#969697" transform="translate(259.125,55.4375)"/>
<path d="M0 0 C0.66 0.33 1.32 0.66 2 1 C0.515 4.96 0.515 4.96 -1 9 C-1.66 9 -2.32 9 -3 9 C-3.36923077 3.46153846 -3.36923077 3.46153846 -1.5 1.125 C-1.005 0.75375 -0.51 0.3825 0 0 Z " fill="#959596" transform="translate(63,21)"/>
<path d="M0 0 C1.90401138 1.90401138 2.93520439 3.33425686 3.19921875 6.046875 C3.1886578 8.03233273 3.09915043 10.0169914 3 12 C2.67 12 2.34 12 2 12 C2 10.02 2 8.04 2 6 C0.68 5.67 -0.64 5.34 -2 5 C-1.34 3.35 -0.68 1.7 0 0 Z " fill="#99999A" transform="translate(111,47)"/>
<path d="M0 0 C0.33 0 0.66 0 1 0 C1.06058594 0.61488281 1.12117187 1.22976562 1.18359375 1.86328125 C1.26738281 2.67152344 1.35117188 3.47976562 1.4375 4.3125 C1.51871094 5.11300781 1.59992188 5.91351563 1.68359375 6.73828125 C1.95265693 9.16087179 1.95265693 9.16087179 3 12 C2.67 12.66 2.34 13.32 2 14 C1.34 14 0.68 14 0 14 C0 9.38 0 4.76 0 0 Z " fill="#616162" transform="translate(127,21)"/>
<path d="M0 0 C0.33 0 0.66 0 1 0 C1.042721 1.66611905 1.04063832 3.33382885 1 5 C0 6 0 6 -3.0625 6.0625 C-4.5165625 6.0315625 -4.5165625 6.0315625 -6 6 C-6 5.01 -6 4.02 -6 3 C-3.03 3.495 -3.03 3.495 0 4 C0 2.68 0 1.36 0 0 Z " fill="#ED58AC" transform="translate(184,82)"/>
<path d="M0 0 C1.37562854 1.28965176 2.70766393 2.62689293 4 4 C4 4.66 4 5.32 4 6 C5.98 6 7.96 6 10 6 C10 6.33 10 6.66 10 7 C3.375 7.25 3.375 7.25 0 5 C-0.1875 2.375 -0.1875 2.375 0 0 Z " fill="#ADCBEA" transform="translate(169,49)"/>
<path d="M0 0 C0.625 1.875 0.625 1.875 1 4 C0.34 4.66 -0.32 5.32 -1 6 C-3.125 5.625 -3.125 5.625 -5 5 C-5 4.01 -5 3.02 -5 2 C-4.360625 1.855625 -3.72125 1.71125 -3.0625 1.5625 C-1.02454854 1.18992819 -1.02454854 1.18992819 0 0 Z " fill="#F6B2D8" transform="translate(276,86)"/>
<path d="M0 0 C0.66 0 1.32 0 2 0 C2 2.97 2 5.94 2 9 C1.01 8.67 0.02 8.34 -1 8 C-0.67 5.36 -0.34 2.72 0 0 Z " fill="#F078B9" transform="translate(240,79)"/>
<path d="M0 0 C1.32 0.66 2.64 1.32 4 2 C3.67 3.32 3.34 4.64 3 6 C2.01 6 1.02 6 0 6 C-0.38218767 4.34385343 -0.71395102 2.67542976 -1 1 C-0.67 0.67 -0.34 0.34 0 0 Z " fill="#F7B2D9" transform="translate(85,76)"/>
<path d="M0 0 C7.75 0.75 7.75 0.75 10 3 C8.72125 3.061875 7.4425 3.12375 6.125 3.1875 C5.40570313 3.22230469 4.68640625 3.25710937 3.9453125 3.29296875 C3.30335938 3.19628906 2.66140625 3.09960938 2 3 C1.34 2.01 0.68 1.02 0 0 Z " fill="#69696A" transform="translate(291,37)"/>
<path d="M0 0 C0.66 0.33 1.32 0.66 2 1 C1.40138258 3.35171131 0.73075648 5.6859378 0 8 C-0.99 8.495 -0.99 8.495 -2 9 C-1.125 1.125 -1.125 1.125 0 0 Z " fill="#0599DC" transform="translate(167,30)"/>
<path d="M0 0 C2.475 0.495 2.475 0.495 5 1 C4.67 2.32 4.34 3.64 4 5 C3.01 5 2.02 5 1 5 C0.67 3.35 0.34 1.7 0 0 Z " fill="#F6ADD7" transform="translate(279,77)"/>
<path d="M0 0 C0.99 0.66 1.98 1.32 3 2 C2.625 4.4375 2.625 4.4375 2 7 C1.01 7.495 1.01 7.495 0 8 C0 6.68 0 5.36 0 4 C-0.66 3.67 -1.32 3.34 -2 3 C-1.34 2.01 -0.68 1.02 0 0 Z " fill="#FAF032" transform="translate(192,50)"/>
<path d="M0 0 C0.66 0 1.32 0 2 0 C2.33 2.64 2.66 5.28 3 8 C2.34 8 1.68 8 1 8 C-0.35439668 5.29120665 -0.06501451 2.99066732 0 0 Z " fill="#686869" transform="translate(245,42)"/>
<path d="M0 0 C0.66 0.33 1.32 0.66 2 1 C1.34 2.98 0.68 4.96 0 7 C-0.99 7 -1.98 7 -3 7 C-2.25 2.25 -2.25 2.25 0 0 Z " fill="#8E8E8F" transform="translate(134,21)"/>
<path d="M0 0 C2.97 0.495 2.97 0.495 6 1 C4.768606 3.46278801 3.21935077 4.42497687 1 6 C0.67 4.02 0.34 2.04 0 0 Z " fill="#F5A7D2" transform="translate(179,74)"/>
<path d="M0 0 C0.33 0.66 0.66 1.32 1 2 C2.65 2 4.3 2 6 2 C6 2.99 6 3.98 6 5 C3.625 4.6875 3.625 4.6875 1 4 C0.34 3.01 -0.32 2.02 -1 1 C-0.67 0.67 -0.34 0.34 0 0 Z " fill="#E4037B" transform="translate(167,54)"/>
<path d="M0 0 C0 1.32 0 2.64 0 4 C-0.66 4 -1.32 4 -2 4 C-2.33 4.99 -2.66 5.98 -3 7 C-3.33 5.02 -3.66 3.04 -4 1 C-2 0 -2 0 0 0 Z " fill="#888889" transform="translate(115,29)"/>
<path d="" fill="#FFFFFF" transform="translate(0,0)"/>
</svg>
