<?xml version="1.0" encoding="UTF-8"?>
<svg version="1.1" xmlns="http://www.w3.org/2000/svg" width="90" height="66">
<path d="M0 0 C29.7 0 59.4 0 90 0 C90 21.78 90 43.56 90 66 C60.3 66 30.6 66 0 66 C0 44.22 0 22.44 0 0 Z " fill="#FAFAFA" transform="translate(0,0)"/>
<path d="M0 0 C4.89620131 0.45546059 7.51102953 1.51102953 11 5 C15.19085043 10.66331139 15.62905939 15.07003423 15 22 C14.57460937 23.74023438 14.57460937 23.74023438 14.140625 25.515625 C13.58656312 29.14182314 13.58656312 29.14182314 16.30859375 31.546875 C17.34113281 32.27390625 18.37367187 33.0009375 19.4375 33.75 C21.334842 35.1082974 23.20058738 36.51440494 25 38 C25 38.99 25 39.98 25 41 C19.71465294 40.67967594 16.56779936 37.61273386 13 34 C12.34 33.01 11.68 32.02 11 31 C9.70094902 31.7371359 8.41098878 32.49030556 7.125 33.25 C6.40570313 33.66765625 5.68640625 34.0853125 4.9453125 34.515625 C2.79125838 36.15928076 2.00859415 37.51567335 1 40 C-1.375 39.8125 -1.375 39.8125 -4 39 C-5.25 36.5 -5.25 36.5 -6 34 C-6.33 33.67 -6.66 33.34 -7 33 C-7.09978121 36.49234244 -6.77842938 39.59437148 -6 43 C-8.4960713 40.39047091 -9.03004421 38.81673032 -9.625 35.1875 C-10.69664301 29.49736014 -13.74184255 25.03863108 -16.81298828 20.22924805 C-20.41619482 14.55999626 -20.41619482 14.55999626 -21 11 C-20.0625 8.75 -20.0625 8.75 -19 7 C-16.525 7.99 -16.525 7.99 -14 9 C-14 8.34 -14 7.68 -14 7 C-11.22899606 5.61449803 -9.0665294 5.8122533 -6 6 C-5.01 6.66 -4.02 7.32 -3 8 C-1.865625 8 -0.73125 8 0.4375 8 C3.79754423 8 5.24138187 8.23448439 8 10 C8 10.99 8 11.98 8 13 C7.34 13 6.68 13 6 13 C6.185625 14.216875 6.37125 15.43375 6.5625 16.6875 C6.98993182 20.02977939 6.92258883 22.71968417 6 26 C4.68 26 3.36 26 2 26 C2.26676204 27.98491642 2.26676204 27.98491642 3 30 C3.99 30.33 4.98 30.66 6 31 C9.49719532 27.73595103 11.7083874 25.24473888 12.3359375 20.4140625 C12.41964498 14.43734822 12.31541071 10.53118124 8 6 C5.91991859 4.54314909 3.82133504 3.22772359 1.609375 1.98046875 C1.07828125 1.65691406 0.5471875 1.33335938 0 1 C0 0.67 0 0.34 0 0 Z " fill="#ECE8E8" transform="translate(45,1)"/>
<path d="M0 0 C0.99 0.66 1.98 1.32 3 2 C4.134375 2 5.26875 2 6.4375 2 C9.79754423 2 11.24138187 2.23448439 14 4 C14 4.99 14 5.98 14 7 C13.34 7 12.68 7 12 7 C12.185625 8.216875 12.37125 9.43375 12.5625 10.6875 C12.98993182 14.02977939 12.92258883 16.71968417 12 20 C10.68 20 9.36 20 8 20 C8.66 21.98 9.32 23.96 10 26 C7.625 26.625 7.625 26.625 5 27 C3 25 3 25 2.875 21.875 C2.91625 20.92625 2.9575 19.9775 3 19 C4.65 19 6.3 19 8 19 C7.67 15.37 7.34 11.74 7 8 C3.92634304 8.63171522 3.92634304 8.63171522 3.125 10.75 C1.61984999 13.76030003 -0.57377963 15.70147544 -3 18 C-7.09527304 14.31425427 -8.76280174 11.37198265 -9.3125 5.875 C-9 3 -9 3 -7.875 1.125 C-5.14747535 -0.51151479 -3.12026907 -0.32502803 0 0 Z " fill="#AE1E1F" transform="translate(39,7)"/>
<path d="M0 0 C0.98484375 0.00902344 1.9696875 0.01804688 2.984375 0.02734375 C4.10585938 0.04474609 4.10585938 0.04474609 5.25 0.0625 C5.25 0.7225 5.25 1.3825 5.25 2.0625 C6.1575 2.660625 7.065 3.25875 8 3.875 C11.74166151 6.39342602 14.23084917 9.02419835 16.25 13.0625 C17.05744897 19.91428128 16.53937536 24.85891464 12.63671875 30.6015625 C11.25 32.0625 11.25 32.0625 8.25 33.0625 C7.26 32.4025 6.27 31.7425 5.25 31.0625 C5.25 29.7425 5.25 28.4225 5.25 27.0625 C6.57 27.0625 7.89 27.0625 9.25 27.0625 C9.25 22.7725 9.25 18.4825 9.25 14.0625 C9.91 14.0625 10.57 14.0625 11.25 14.0625 C11.25 13.0725 11.25 12.0825 11.25 11.0625 C7.2686217 9.7353739 3.39954773 9.99334087 -0.75 10.0625 C-0.75 9.4025 -0.75 8.7425 -0.75 8.0625 C-1.78060547 8.07990234 -1.78060547 8.07990234 -2.83203125 8.09765625 C-3.73308594 8.10667969 -4.63414063 8.11570312 -5.5625 8.125 C-6.90248047 8.14240234 -6.90248047 8.14240234 -8.26953125 8.16015625 C-10.75 8.0625 -10.75 8.0625 -13.75 7.0625 C-13.42 6.0725 -13.09 5.0825 -12.75 4.0625 C-11.76 4.0625 -10.77 4.0625 -9.75 4.0625 C-9.75 3.0725 -9.75 2.0825 -9.75 1.0625 C-6.43929162 0.06140485 -3.44915231 -0.04106134 0 0 Z " fill="#F3F1EB" transform="translate(41.75,-0.0625)"/>
<path d="M0 0 C4.89620131 0.45546059 7.51102953 1.51102953 11 5 C15.19085043 10.66331139 15.62905939 15.07003423 15 22 C14.71640625 23.16015625 14.4328125 24.3203125 14.140625 25.515625 C13.58656312 29.14182314 13.58656312 29.14182314 16.30859375 31.546875 C17.34113281 32.27390625 18.37367187 33.0009375 19.4375 33.75 C21.334842 35.1082974 23.20058738 36.51440494 25 38 C25 38.99 25 39.98 25 41 C19.71465294 40.67967594 16.56779936 37.61273386 13 34 C12.34 33.01 11.68 32.02 11 31 C9.70094902 31.7371359 8.41098878 32.49030556 7.125 33.25 C6.40570313 33.66765625 5.68640625 34.0853125 4.9453125 34.515625 C2.79125838 36.15928076 2.00859415 37.51567335 1 40 C-0.65 39.67 -2.3 39.34 -4 39 C-4.66 37.02 -5.32 35.04 -6 33 C-5.0925 33.226875 -4.185 33.45375 -3.25 33.6875 C-0.03695844 34.33599388 -0.03695844 34.33599388 2.125 32.625 C2.74375 32.08875 3.3625 31.5525 4 31 C4.66 30.9175 5.32 30.835 6 30.75 C8.80956418 29.69641343 9.88466795 27.82811922 11.234375 25.23046875 C13.16338452 19.61075223 12.89269057 14.00855378 10.5 8.625 C7.77010512 5.75861037 5.03936597 3.914533 1.609375 1.98046875 C1.07828125 1.65691406 0.5471875 1.33335938 0 1 C0 0.67 0 0.34 0 0 Z " fill="#FBDF95" transform="translate(45,1)"/>
<path d="M0 0 C0.66 0 1.32 0 2 0 C2.33 1.98 2.66 3.96 3 6 C3.7425 6 4.485 6 5.25 6 C10.5 6 15.75 6 21 6 C21 8.97 21 11.94 21 15 C19.741875 15.04125 18.48375 15.0825 17.1875 15.125 C16.47980469 15.14820313 15.77210937 15.17140625 15.04296875 15.1953125 C13 15 13 15 10 13 C9.01 13.66 8.02 14.32 7 15 C3.3125 14.625 3.3125 14.625 0 14 C0 9.38 0 4.76 0 0 Z " fill="#4A4A4A" transform="translate(61,48)"/>
<path d="M0 0 C7.42857143 -0.28571429 7.42857143 -0.28571429 11 2 C11 2.99 11 3.98 11 5 C10.34 5 9.68 5 9 5 C9.185625 6.216875 9.37125 7.43375 9.5625 8.6875 C9.98993182 12.02977939 9.92258883 14.71968417 9 18 C7.68 18 6.36 18 5 18 C5.66 19.98 6.32 21.96 7 24 C4.625 24.625 4.625 24.625 2 25 C0 23 0 23 -0.125 19.875 C-0.08375 18.92625 -0.0425 17.9775 0 17 C1.65 17 3.3 17 5 17 C4.67 12.71 4.34 8.42 4 4 C3.01 3.67 2.02 3.34 1 3 C0.67 2.01 0.34 1.02 0 0 Z " fill="#0F0C0C" transform="translate(42,9)"/>
<path d="M0 0 C6.93359375 -0.09765625 6.93359375 -0.09765625 9 0 C10 1 10 1 10.1875 3.9375 C10 7 10 7 8 9 C6.68 9 5.36 9 4 9 C3.67 9.99 3.34 10.98 3 12 C2.01 12 1.02 12 0 12 C0 8.04 0 4.08 0 0 Z " fill="#535353" transform="translate(22,54)"/>
<path d="M0 0 C0.66 0 1.32 0 2 0 C2.33 1.98 2.66 3.96 3 6 C3.78375 5.95875 4.5675 5.9175 5.375 5.875 C8 6 8 6 10 8 C9.625 11.125 9.625 11.125 9 14 C5.32431536 14.91892116 3.83619425 14.95904856 0 14 C0 9.38 0 4.76 0 0 Z " fill="#535353" transform="translate(61,48)"/>
<path d="M0 0 C1.875 1.5 1.875 1.5 3 3 C-0.11016455 6.28788824 -3.01618925 8.83735988 -7 11 C-9 9 -9 9 -9.3125 6.0625 C-9 3 -9 3 -7.875 1.125 C-5.11909116 -0.52854531 -3.14924548 -0.39365568 0 0 Z " fill="#070505" transform="translate(39,7)"/>
<path d="M0 0 C2.05078125 0.03255208 4.1015625 0.06510417 6.15234375 0.09765625 C6.15234375 3.06765625 6.15234375 6.03765625 6.15234375 9.09765625 C4.87359375 9.15953125 3.59484375 9.22140625 2.27734375 9.28515625 C1.55804688 9.31996094 0.83875 9.35476562 0.09765625 9.390625 C-0.54429688 9.29394531 -1.18625 9.19726562 -1.84765625 9.09765625 C-3.84765625 6.09765625 -3.84765625 6.09765625 -3.53515625 3.47265625 C-2.56922244 0.135794 -2.56922244 0.135794 0 0 Z " fill="#505050" transform="translate(36.84765625,53.90234375)"/>
<path d="M0 0 C1.32 0 2.64 0 4 0 C4.05406122 1.93719378 4.09282025 3.87481921 4.125 5.8125 C4.14820313 6.89144531 4.17140625 7.97039063 4.1953125 9.08203125 C4 12 4 12 2 15 C-0.625 15.1875 -0.625 15.1875 -3 15 C-3.33 13.68 -3.66 12.36 -4 11 C-2.68 11.33 -1.36 11.66 0 12 C0 8.04 0 4.08 0 0 Z " fill="#313131" transform="translate(13,48)"/>
<path d="M0 0 C3.4087928 1.3984791 4.87393835 2.85006933 6.75 6 C7.17796875 6.70125 7.6059375 7.4025 8.046875 8.125 C9 10 9 10 9 12 C9.66 12 10.32 12 11 12 C10.67 12.66 10.34 13.32 10 14 C5.38 13.01 0.76 12.02 -4 11 C-4 10.01 -4 9.02 -4 8 C2.625 8.75 2.625 8.75 6 11 C4.08864614 7.46399535 2.37357234 5.21027154 -1 3 C-0.67 2.01 -0.34 1.02 0 0 Z " fill="#818181" transform="translate(24,22)"/>
<path d="M0 0 C4.62 0 9.24 0 14 0 C14 2.64 14 5.28 14 8 C13.34 8 12.68 8 12 8 C11.67 6.35 11.34 4.7 11 3 C10.34 3 9.68 3 9 3 C8.67 4.65 8.34 6.3 8 8 C7.34 8 6.68 8 6 8 C6 6.02 6 4.04 6 2 C5.01 2.33 4.02 2.66 3 3 C2.67 4.65 2.34 6.3 2 8 C1.34 8 0.68 8 0 8 C0 5.36 0 2.72 0 0 Z " fill="#000000" transform="translate(45,54)"/>
<path d="M0 0 C4.89620131 0.45546059 7.51102953 1.51102953 11 5 C15.14061216 10.59542184 15.73424739 15.11492608 15 22 C14.67 22.99 14.34 23.98 14 25 C13.34 25 12.68 25 12 25 C12.04640625 24.13117187 12.0928125 23.26234375 12.140625 22.3671875 C12.40658055 15.25293449 12.40658055 15.25293449 10.5 8.5 C7.75577948 5.75577948 4.97742837 3.87960833 1.609375 1.98046875 C1.07828125 1.65691406 0.5471875 1.33335938 0 1 C0 0.67 0 0.34 0 0 Z " fill="#F8E49B" transform="translate(45,1)"/>
<path d="M0 0 C0.99 0.33 1.98 0.66 3 1 C4.125 8.625 4.125 8.625 3 12 C1.35 11.67 -0.3 11.34 -2 11 C-2.05399736 9.54207116 -2.09279177 8.08357288 -2.125 6.625 C-2.15980469 5.40683594 -2.15980469 5.40683594 -2.1953125 4.1640625 C-2 2 -2 2 0 0 Z " fill="#F3F1F2" transform="translate(44,14)"/>
<path d="M0 0 C3.52263859 3.32464485 6.43222932 6.93760348 9.3125 10.8125 C9.77978516 11.40353516 10.24707031 11.99457031 10.72851562 12.60351562 C13.25863015 16.03056883 14.04037964 17.35123379 13.765625 21.765625 C13.51296875 22.83296875 13.2603125 23.9003125 13 25 C13.35974895 27.81237541 13.35974895 27.81237541 14 30 C11.5039287 27.39047091 10.96995579 25.81673032 10.375 22.1875 C9.29863803 16.4404959 6.18775886 11.9169188 3.09912109 7.0534668 C0 2.16658512 0 2.16658512 0 0 Z " fill="#393939" transform="translate(25,14)"/>
<path d="M0 0 C3.96790076 1.67872725 6.86931494 4.08277074 10 7 C10 7.99 10 8.98 10 10 C4.59950264 9.68232368 2.47662935 6.80003673 -1 3 C-0.67 2.01 -0.34 1.02 0 0 Z " fill="#B19046" transform="translate(60,32)"/>
<path d="M0 0 C1.953125 0.6484375 1.953125 0.6484375 4 2 C4.609375 4.6015625 4.609375 4.6015625 4.75 7.625 C4.80671875 8.62789062 4.8634375 9.63078125 4.921875 10.6640625 C4.94765625 11.43492188 4.9734375 12.20578125 5 13 C2.12049214 10.3991542 0.78262987 8.78271103 0 5 C-0.66 4.67 -1.32 4.34 -2 4 C-1.34 2.68 -0.68 1.36 0 0 Z " fill="#F9F8F5" transform="translate(26,8)"/>
<path d="M0 0 C0.66 0 1.32 0 2 0 C2 2.31 2 4.62 2 7 C2.66 7.33 3.32 7.66 4 8 C4.625 11.0625 4.625 11.0625 5 14 C3.35 14 1.7 14 0 14 C0 9.38 0 4.76 0 0 Z " fill="#080808" transform="translate(61,48)"/>
<path d="M0 0 C2.64 0 5.28 0 8 0 C8 2.64 8 5.28 8 8 C6.35 8 4.7 8 3 8 C3.66 7.34 4.32 6.68 5 6 C5 5.01 5 4.02 5 3 C3.02 3 1.04 3 -1 3 C-0.67 2.01 -0.34 1.02 0 0 Z " fill="#070707" transform="translate(73,54)"/>
<path d="M0 0 C1.99954746 -0.04254356 4.00041636 -0.04080783 6 0 C7 1 7 1 7.1875 3.9375 C7 7 7 7 5 9 C2.875 8.625 2.875 8.625 1 8 C1 7.34 1 6.68 1 6 C1.99 6 2.98 6 4 6 C4 4.68 4 3.36 4 2 C2.68 1.34 1.36 0.68 0 0 Z " fill="#1B1B1B" transform="translate(25,54)"/>
<path d="M0 0 C2.31 0.66 4.62 1.32 7 2 C7.33 3.32 7.66 4.64 8 6 C6.35 6.33 4.7 6.66 3 7 C2.01 4.69 1.02 2.38 0 0 Z " fill="#989898" transform="translate(39,34)"/>
<path d="M0 0 C0.99 0 1.98 0 3 0 C3.99 1.98 4.98 3.96 6 6 C3.625 6.625 3.625 6.625 1 7 C0.34 6.34 -0.32 5.68 -1 5 C-0.625 2.375 -0.625 2.375 0 0 Z " fill="#050505" transform="translate(43,27)"/>
<path d="M0 0 C4.20969919 1.50346399 5.91860139 4.14555814 8 8 C7.75 10.375 7.75 10.375 7 12 C6.4225 11.071875 5.845 10.14375 5.25 9.1875 C3.28365288 6.40184158 1.81962028 4.81261304 -1 3 C-0.67 2.01 -0.34 1.02 0 0 Z " fill="#2E2E2E" transform="translate(24,22)"/>
<path d="M0 0 C0.99 0 1.98 0 3 0 C3 2.97 3 5.94 3 9 C2.01 9 1.02 9 0 9 C0 6.03 0 3.06 0 0 Z " fill="#171717" transform="translate(18,54)"/>
<path d="M0 0 C1.32 1.32 2.64 2.64 4 4 C3.01 4.66 2.02 5.32 1 6 C-0.19232613 8.05003955 -0.19232613 8.05003955 -1 10 C-1 8.02 -1 6.04 -1 4 C-2.32 4.33 -3.64 4.66 -5 5 C-3.35 3.35 -1.7 1.7 0 0 Z " fill="#741E1D" transform="translate(42,10)"/>
<path d="M0 0 C1.65 0 3.3 0 5 0 C5 2.64 5 5.28 5 8 C4.34 8 3.68 8 3 8 C2.67 6.35 2.34 4.7 2 3 C1.01 3 0.02 3 -1 3 C-0.67 2.01 -0.34 1.02 0 0 Z " fill="#090909" transform="translate(54,54)"/>
<path d="M0 0 C4.84436703 0.45063879 7.53993961 1.53993961 11 5 C11.63671875 7.13671875 11.63671875 7.13671875 12 9 C8 6 4 3 0 0 Z " fill="#CBA64E" transform="translate(45,1)"/>
<path d="M0 0 C-1 3 -1 3 -4.0625 4.6875 C-5.031875 5.120625 -6.00125 5.55375 -7 6 C-7.33 4.68 -7.66 3.36 -8 2 C-4.91190305 0.23537317 -3.76687864 0 0 0 Z " fill="#EFE0B0" transform="translate(53,32)"/>
<path d="M0 0 C2.4932534 0.99730136 3.77467439 1.65074531 5.25 3.9375 C6 6 6 6 6 9 C5.34 9 4.68 9 4 9 C0 2.25 0 2.25 0 0 Z " fill="#E5E5E5" transform="translate(29,25)"/>
<path d="M0 0 C3.16115776 1.36983503 3.9927092 1.9890638 6 5 C4.35 5 2.7 5 1 5 C0.34 3.68 -0.32 2.36 -1 1 C-0.67 0.67 -0.34 0.34 0 0 Z " fill="#D0AF65" transform="translate(60,32)"/>
<path d="M0 0 C0.99 0.33 1.98 0.66 3 1 C2.814375 2.051875 2.62875 3.10375 2.4375 4.1875 C2.04920669 7.57119882 2.11752515 9.76425888 3 13 C-0.54039643 9.30567329 -0.67693402 5.9267562 -1 1 C-0.67 0.67 -0.34 0.34 0 0 Z " fill="#535353" transform="translate(36,31)"/>
<path d="M0 0 C1.32 0.33 2.64 0.66 4 1 C3.34 3.31 2.68 5.62 2 8 C1.34 8 0.68 8 0 8 C0 5.36 0 2.72 0 0 Z " fill="#070707" transform="translate(45,54)"/>
<path d="M0 0 C1.485 0.99 1.485 0.99 3 2 C3 3.32 3 4.64 3 6 C1.68 6 0.36 6 -1 6 C-1.042721 4.33388095 -1.04063832 2.66617115 -1 1 C-0.67 0.67 -0.34 0.34 0 0 Z " fill="#B1B1B1" transform="translate(35,39)"/>
<path d="M0 0 C0.33 0 0.66 0 1 0 C1 2.64 1 5.28 1 8 C-0.32 7.67 -1.64 7.34 -3 7 C-2.01 4.69 -1.02 2.38 0 0 Z " fill="#020202" transform="translate(42,54)"/>
<path d="M0 0 C0.66 0.33 1.32 0.66 2 1 C2 2.32 2 3.64 2 5 C1.34 5 0.68 5 0 5 C0 5.66 0 6.32 0 7 C-0.66 7 -1.32 7 -2 7 C-1.125 1.125 -1.125 1.125 0 0 Z " fill="#CBA4A4" transform="translate(40,19)"/>
<path d="M0 0 C1.32 0.33 2.64 0.66 4 1 C3.67 2.32 3.34 3.64 3 5 C2.01 4.67 1.02 4.34 0 4 C0 2.68 0 1.36 0 0 Z " fill="#DEDEDE" transform="translate(75,56)"/>
<path d="M0 0 C1.32 0.66 2.64 1.32 4 2 C3.67 3.32 3.34 4.64 3 6 C1.68 5.34 0.36 4.68 -1 4 C-0.67 2.68 -0.34 1.36 0 0 Z " fill="#CEB884" transform="translate(26,8)"/>
</svg>
