<svg xmlns="http://www.w3.org/2000/svg" viewBox="0 0 394.18 108.85"><defs><style>.cls-1{isolation:isolate;}.cls-2,.cls-7{fill:#fff;}.cls-3,.cls-4,.cls-6,.cls-7{mix-blend-mode:lighten;}.cls-4{fill:#fff7ee;}.cls-5,.cls-6{fill:#f3ffff;}</style></defs><title>logo_white</title><g class="cls-1"><g id="Layer_2" data-name="Layer 2"><g id="Layer_1-2" data-name="Layer 1"><path class="cls-2" d="M162,75.94h4.69v6.89h2.78v4h-2.78v14.66H162V86.87h-2.41v-4H162Z"/><path class="cls-2" d="M192.08,93.54H177a5,5,0,0,0,1.74,3.17,5.51,5.51,0,0,0,3.62,1.18,6.28,6.28,0,0,0,4.52-1.84l4,1.85a9.37,9.37,0,0,1-3.54,3.1,11.1,11.1,0,0,1-4.9,1,9.67,9.67,0,0,1-7.16-2.78,9.41,9.41,0,0,1-2.77-7,9.74,9.74,0,0,1,2.76-7.1,9.24,9.24,0,0,1,6.91-2.83,9.6,9.6,0,0,1,7.19,2.83,10.21,10.21,0,0,1,2.76,7.46Zm-4.69-3.7a4.72,4.72,0,0,0-1.84-2.54,5.32,5.32,0,0,0-3.17-1,5.66,5.66,0,0,0-3.45,1.1,6.2,6.2,0,0,0-1.72,2.42Z"/><path class="cls-2" d="M215.58,86.61l-3.9,2.15a5.77,5.77,0,0,0-4.7-2,5.85,5.85,0,0,0-4.26,1.57,5.33,5.33,0,0,0-1.62,4,5.16,5.16,0,0,0,1.56,3.89,5.65,5.65,0,0,0,4.11,1.51,6,6,0,0,0,4.91-2.14l3.69,2.53a10.06,10.06,0,0,1-8.48,3.91,10.18,10.18,0,0,1-7.73-2.92,9.72,9.72,0,0,1,2.36-15.43A11.3,11.3,0,0,1,207,82.35a11,11,0,0,1,5,1.11A9.52,9.52,0,0,1,215.58,86.61Z"/><path class="cls-2" d="M221.23,75.62h4.66v9.1A10.52,10.52,0,0,1,228.65,83a7.08,7.08,0,0,1,2.82-.6,6.31,6.31,0,0,1,4.69,1.93,6.7,6.7,0,0,1,1.64,4.89v12.36h-4.63v-8.2a20,20,0,0,0-.31-4.4,2.79,2.79,0,0,0-2.9-2.28,3.48,3.48,0,0,0-2.45.94,5.07,5.07,0,0,0-1.42,2.58,22.39,22.39,0,0,0-.2,3.85v7.51h-4.66Z"/><path class="cls-2" d="M243.74,82.83h4.69v1.92a11.14,11.14,0,0,1,2.89-1.87,7,7,0,0,1,2.65-.53,6.44,6.44,0,0,1,4.72,1.94,6.66,6.66,0,0,1,1.63,4.88v12.36h-4.64V93.34a20.65,20.65,0,0,0-.3-4.44,3,3,0,0,0-1-1.68,2.93,2.93,0,0,0-1.84-.57,3.46,3.46,0,0,0-2.44.95,5.07,5.07,0,0,0-1.41,2.63,20.93,20.93,0,0,0-.21,3.8v7.5h-4.69Z"/><path class="cls-2" d="M275,82.35a9.83,9.83,0,0,1,5,1.33,9.48,9.48,0,0,1,3.63,3.59A9.64,9.64,0,0,1,285,92.16a9.76,9.76,0,0,1-1.32,5,9.38,9.38,0,0,1-3.58,3.6,9.84,9.84,0,0,1-5,1.3,9.3,9.3,0,0,1-6.86-2.86,9.9,9.9,0,0,1,.37-14.26A9.37,9.37,0,0,1,275,82.35Zm.08,4.42a4.8,4.8,0,0,0-3.64,1.52A5.39,5.39,0,0,0,270,92.18a5.52,5.52,0,0,0,1.43,3.95,4.8,4.8,0,0,0,3.64,1.51,4.87,4.87,0,0,0,3.67-1.52,6.05,6.05,0,0,0,0-7.85A4.88,4.88,0,0,0,275.12,86.77Z"/><path class="cls-2" d="M289.68,75.62h4.69v25.91h-4.69Z"/><path class="cls-2" d="M308.82,82.35a9.82,9.82,0,0,1,5,1.33,9.44,9.44,0,0,1,3.64,3.59,9.63,9.63,0,0,1,1.3,4.89,9.75,9.75,0,0,1-1.31,5,9.45,9.45,0,0,1-3.58,3.6,9.84,9.84,0,0,1-5,1.3A9.33,9.33,0,0,1,302,99.15a9.93,9.93,0,0,1,.37-14.26A9.42,9.42,0,0,1,308.82,82.35Zm.08,4.42a4.8,4.8,0,0,0-3.64,1.52,5.39,5.39,0,0,0-1.46,3.89,5.49,5.49,0,0,0,1.44,3.95,4.8,4.8,0,0,0,3.64,1.51,4.87,4.87,0,0,0,3.67-1.52A5.5,5.5,0,0,0,314,92.18a5.42,5.42,0,0,0-1.44-3.91A4.86,4.86,0,0,0,308.9,86.77Z"/><path class="cls-2" d="M337.79,82.83h4.67v16q0,4.74-1.9,7-2.56,3-7.72,3a13.47,13.47,0,0,1-4.62-.69,8.08,8.08,0,0,1-5.07-5.26h5.17a4.29,4.29,0,0,0,1.77,1.2,7.32,7.32,0,0,0,2.56.4,6.72,6.72,0,0,0,3-.58,3.56,3.56,0,0,0,1.63-1.52,7.7,7.7,0,0,0,.47-3.19,7.85,7.85,0,0,1-2.6,1.78,8.24,8.24,0,0,1-3.07.54,8.46,8.46,0,0,1-6.36-2.72,10.54,10.54,0,0,1,.16-14,8.22,8.22,0,0,1,5.94-2.44,7.83,7.83,0,0,1,3.05.6,9.55,9.55,0,0,1,2.88,1.94Zm-4.86,3.9a4.88,4.88,0,0,0-3.66,1.49A5.13,5.13,0,0,0,327.82,92a5.2,5.2,0,0,0,1.48,3.83A5,5,0,0,0,333,97.28a4.76,4.76,0,0,0,3.6-1.46,5.82,5.82,0,0,0,0-7.63A4.91,4.91,0,0,0,332.93,86.73Z"/><path class="cls-2" d="M350.44,75.14a2.86,2.86,0,0,1,2.12.89,3,3,0,0,1,.88,2.16,2.94,2.94,0,0,1-.87,2.14,2.85,2.85,0,0,1-2.09.89,2.89,2.89,0,0,1-2.14-.9,3,3,0,0,1-.88-2.19,3,3,0,0,1,3-3Zm-2.34,7.69h4.69v18.7H348.1Z"/><path class="cls-2" d="M377.18,93.54H362.12a5,5,0,0,0,1.74,3.17,5.49,5.49,0,0,0,3.62,1.18A6.3,6.3,0,0,0,372,96.05L376,97.9a9.37,9.37,0,0,1-3.54,3.1,11.1,11.1,0,0,1-4.9,1,9.67,9.67,0,0,1-7.16-2.78,9.41,9.41,0,0,1-2.77-7,9.74,9.74,0,0,1,2.76-7.1,9.24,9.24,0,0,1,6.91-2.83,9.57,9.57,0,0,1,7.18,2.83,10.18,10.18,0,0,1,2.77,7.46Zm-4.69-3.7a4.7,4.7,0,0,0-1.83-2.54,5.33,5.33,0,0,0-3.18-1,5.65,5.65,0,0,0-3.44,1.1,6.2,6.2,0,0,0-1.72,2.42Z"/><path class="cls-2" d="M393.83,85.45l-2.9,2.9a4.9,4.9,0,0,0-3.21-1.75,2.05,2.05,0,0,0-1.24.33,1,1,0,0,0-.45.84,1,1,0,0,0,.28.69,5.46,5.46,0,0,0,1.41.87l1.71.86a10,10,0,0,1,3.73,2.73,5.68,5.68,0,0,1-.81,7.42,7,7,0,0,1-4.91,1.67,7.8,7.8,0,0,1-6.53-3.2l2.89-3.14a6.57,6.57,0,0,0,1.93,1.55,4.26,4.26,0,0,0,2,.6,2.32,2.32,0,0,0,1.49-.45,1.29,1.29,0,0,0,.57-1c0-.72-.68-1.43-2-2.12l-1.58-.79q-4.54-2.28-4.54-5.72a5,5,0,0,1,1.71-3.79,6.25,6.25,0,0,1,4.37-1.57,7.65,7.65,0,0,1,3.43.8A7.5,7.5,0,0,1,393.83,85.45Z"/><g class="cls-3"><path class="cls-2" d="M167.39,56.79a4.57,4.57,0,0,1-1.95-2.34L153,21.68a4.87,4.87,0,0,1,1.88-.56,14.71,14.71,0,0,1,2.3-.22,9.13,9.13,0,0,1,4.08.89,4.38,4.38,0,0,1,2.38,2.66l6.59,21L169,48.92l.64.21,8.15-24.68a4.38,4.38,0,0,1,2.38-2.66,9.16,9.16,0,0,1,4.08-.89,14.71,14.71,0,0,1,2.3.22,4.81,4.81,0,0,1,1.88.56L175.94,54.45A4.57,4.57,0,0,1,174,56.79a6.83,6.83,0,0,1-6.6,0Z"/><path class="cls-2" d="M197.68,16.61a5.25,5.25,0,0,1-1.81-4.15,5.27,5.27,0,0,1,1.81-4.15,7.18,7.18,0,0,1,9,0,5.31,5.31,0,0,1,1.81,4.15,5.28,5.28,0,0,1-1.81,4.15,7.14,7.14,0,0,1-9,0Zm-.39,10a4.56,4.56,0,0,1,2.41-4.36c1.61-.88,4-1.32,7.31-1.32V52a4.58,4.58,0,0,1-2.41,4.36c-1.61.88-4,1.31-7.31,1.31Z"/><path class="cls-2" d="M219.14,28.28a6.68,6.68,0,0,1,2.33-5.46c1.57-1.28,3.88-1.92,7-1.92v4.19a12.59,12.59,0,0,0-1.78,2.41l.5.28a14.87,14.87,0,0,1,12.77-6.88,12,12,0,0,1,6.27,1.64,11.47,11.47,0,0,1,4.29,4.5,13.21,13.21,0,0,1,1.57,6.42V52a4.57,4.57,0,0,1-2.42,4.36c-1.6.88-4,1.31-7.3,1.31V35a5.7,5.7,0,0,0-1.53-4.05,5.59,5.59,0,0,0-4.29-1.63,7.37,7.37,0,0,0-5.53,2.2A7.64,7.64,0,0,0,228.85,37V52a4.59,4.59,0,0,1-2.37,4.36c-1.59.88-4,1.31-7.34,1.31Z"/><path class="cls-2" d="M269.49,54.17a13.7,13.7,0,0,1-2.83-8.94V28.71h-7.52a8.91,8.91,0,0,1,1.34-5.39A4.23,4.23,0,0,1,264,21.54h2.77v-5.6a4.6,4.6,0,0,1,2.34-4.36c1.56-.88,3.92-1.31,7.09-1.31V21.54h9.43q0,3.84-1.41,5.5t-4.69,1.67h-3.19V44.88a5,5,0,0,0,.92,3.37,4.18,4.18,0,0,0,3.2,1,10.75,10.75,0,0,0,5.1-1.41,5,5,0,0,1,1.24,1.77,5.29,5.29,0,0,1,.47,2.13,4.62,4.62,0,0,1-1,2.76,7.19,7.19,0,0,1-3,2.24,12.28,12.28,0,0,1-4.93.88Q272.33,57.64,269.49,54.17Z"/><path class="cls-2" d="M301.8,55.87a15.14,15.14,0,0,1-5.92-4.82,11.33,11.33,0,0,1-2.2-6.81V35.16a12.68,12.68,0,0,1,2.23-7.27,15.12,15.12,0,0,1,6-5.14A18.08,18.08,0,0,1,310,20.9a17.7,17.7,0,0,1,7.84,1.74,13.68,13.68,0,0,1,5.64,4.9,12.76,12.76,0,0,1,2.06,7.12v3.83a3.76,3.76,0,0,1-1.28,2.88A4.64,4.64,0,0,1,321,42.54H303.11v1a6.44,6.44,0,0,0,1.74,4.65A6.83,6.83,0,0,0,310,50q3.35,0,4.9-1.45a4.79,4.79,0,0,0,1.56-3.65,21.25,21.25,0,0,1,2.13-.14,7.2,7.2,0,0,1,4.46,1.2,4.22,4.22,0,0,1,1.56,3.55,5.5,5.5,0,0,1-1.91,3.83,14,14,0,0,1-5.29,3.12,22.15,22.15,0,0,1-7.48,1.2A18.67,18.67,0,0,1,301.8,55.87Zm14.93-20.21v-1a5.72,5.72,0,0,0-1.88-4.5,8.11,8.11,0,0,0-9.86,0,5.72,5.72,0,0,0-1.88,4.5v1Z"/><path class="cls-2" d="M332.62,57.18a5.3,5.3,0,0,1-2.48-1.45l12.34-16.95L331.2,22.32a4.36,4.36,0,0,1,2.2-1,12.71,12.71,0,0,1,2.91-.39q4.11,0,5.53,2.27l5.82,9.37-1.49,2.05.56.43,7.66-11.85q1.5-2.27,5.89-2.27a10.57,10.57,0,0,1,2.73.39,4.16,4.16,0,0,1,2,1L353.68,38.78,366.1,55.73a5.41,5.41,0,0,1-2.34,1.45,9.12,9.12,0,0,1-2.84.46,8.78,8.78,0,0,1-3.09-.56,4.7,4.7,0,0,1-2.16-1.42l-7.59-11.28-7.52,11.28a4.19,4.19,0,0,1-2,1.45,7.76,7.76,0,0,1-2.91.53A10.65,10.65,0,0,1,332.62,57.18Z"/></g><path class="cls-4" d="M33.87,100.28a55.61,55.61,0,0,0,23.92,8.07,2.44,2.44,0,0,0,2.43-2.44,2.49,2.49,0,0,0-2.43-2.43,50.16,50.16,0,0,1-21.46-7.4c-2.68-1.66-5.12,2.55-2.46,4.2Z"/><path class="cls-4" d="M90.81,7.85A55.67,55.67,0,0,0,66.82,0a2.43,2.43,0,0,0-2.43,2.43,2.47,2.47,0,0,0,2.43,2.43,50.23,50.23,0,0,1,21.54,7.18c2.69,1.64,5.13-2.57,2.45-4.2Z"/><path class="cls-5" d="M78.07,62.87l-.18,15L91.3,73.46s.06-4.79.14-11.12a69,69,0,0,1-9.38.65C80.72,63,79.39,62.94,78.07,62.87Z"/><path class="cls-5" d="M44.61,68.87l-.14,0L26.32,44.73,17.8,33.22a47.7,47.7,0,0,1,4-6.83c-1-1.88-1.87-3.82-2.67-5.79a55.06,55.06,0,0,0-5.69,8.84L0,33.86l7.53,9.53.73,1A55.76,55.76,0,0,0,25,94.54c2.68,2.51,6.71-1.51,4-4A50,50,0,0,1,13.28,50.7L42.84,89.18l15.39-5.07.47-25.24A67.65,67.65,0,0,1,45,52C44.87,57.86,44.71,64.21,44.61,68.87Z"/><path class="cls-6" d="M104.79,79.06c-7.71,13.42-21.56,22-36.75,24.11-3.63.5-2.08,6,1.51,5.49a55.72,55.72,0,0,0,39.78-26.08,54,54,0,0,0,7.79-29.33c-1.86,1.13-3.78,2.16-5.75,3.11A49.45,49.45,0,0,1,104.79,79.06Z"/><path class="cls-2" d="M91.78,32.08,103.53,28l.68.87c3.17,5.05,8.69,2.46,6.41-1.18l-1-1.23.26-12.66-49,17-.24,11.64,17.66-6-.3,26.39c1.32.07,2.65.12,4,.12a69,69,0,0,0,9.38-.65C91.6,50.13,91.82,32.21,91.78,32.08Z"/><path class="cls-2" d="M50,6.65c3.55-1,2-6.45-1.51-5.49A55.93,55.93,0,0,0,19.1,20.6c.8,2,1.69,3.91,2.67,5.79A50.71,50.71,0,0,1,50,6.65Z"/><path class="cls-2" d="M47.61,35.11c-1.78.61-2.23,2.47-2.27,4.17-.07,2.89-.2,7.62-.32,12.72A67.65,67.65,0,0,0,58.7,58.87l.51-27.57S49.4,34.51,47.61,35.11Z"/><path class="cls-7" d="M109,38.83a50.65,50.65,0,0,1,2.39,17.53c2-1,3.89-2,5.75-3.11a56.19,56.19,0,0,0-2.65-15.93C113.36,33.83,107.86,35.32,109,38.83Z"/><path class="cls-2" d="M91.78,32.08,103.53,28l.68.87c3.17,5.05,8.69,2.46,6.41-1.18l-1-1.23.26-12.66-49,17-.24,11.64,17.66-6-.3,26.39c1.32.07,2.65.12,4,.12a69,69,0,0,0,9.38-.65C91.6,50.13,91.82,32.21,91.78,32.08Z"/><path class="cls-2" d="M50,6.65c3.55-1,2-6.45-1.51-5.49A55.93,55.93,0,0,0,19.1,20.6c.8,2,1.69,3.91,2.67,5.79A50.71,50.71,0,0,1,50,6.65Z"/><path class="cls-2" d="M47.61,35.11c-1.78.61-2.23,2.47-2.27,4.17-.07,2.89-.2,7.62-.32,12.72A67.65,67.65,0,0,0,58.7,58.87l.51-27.57S49.4,34.51,47.61,35.11Z"/><path class="cls-2" d="M109,38.83a50.65,50.65,0,0,1,2.39,17.53c2-1,3.89-2,5.75-3.11a56.19,56.19,0,0,0-2.65-15.93C113.36,33.83,107.86,35.32,109,38.83Z"/></g></g></g></svg>